<svg xmlns="http://www.w3.org/2000/svg" viewBox="0 0 24 24"><defs><style>.cls-1{fill:#4b4b4b;}.cls-2{fill:none;}</style></defs><title>Icon_24px_conversa</title><g id="Camada_2" data-name="Camada 2"><g id="Camada_1-2" data-name="Camada 1"><path class="cls-1" d="M5.29,8.78h8.34a.51.51,0,1,0,0-1H5.29a.51.51,0,1,0,0,1Z"/><path class="cls-1" d="M14.14,10.65a.51.51,0,0,0-.51-.51H5.29a.52.52,0,0,0,0,1h8.34A.51.51,0,0,0,14.14,10.65Z"/><path class="cls-1" d="M22.53,10.79v0a6.93,6.93,0,0,0-5.21-4c-.95-1.61-3.09-3.84-7.62-3.84h-.1C3.82,2.91,2,5.94,1.48,7.24v0a5.73,5.73,0,0,0,1.78,6.61l-.42,3.17h0l0,.26a.19.19,0,0,0,0,.13h0l0,.07a.17.17,0,0,0,.16.09.19.19,0,0,0,.1,0l1.46-.91,0,0,1.85-1.16c0,.11.11.22.17.33a6.29,6.29,0,0,0,4,3,15.73,15.73,0,0,0,4,.58,7.66,7.66,0,0,0,2.84-.48l1.95,1.22,0,0,1.46.91a.19.19,0,0,0,.1,0,.17.17,0,0,0,.16-.09l.05-.07v0a.16.16,0,0,0,0-.12l0-.26h0l-.42-3.17A5.73,5.73,0,0,0,22.53,10.79ZM4.26,15.46,4.45,14l.08-.66L4,13A4.57,4.57,0,0,1,2.57,7.75v0h0v0c.43-1.08,2-3.58,7-3.61h.09c5.53,0,6.9,3.7,7.12,4.44a4.39,4.39,0,0,1-.51,3.19,5.08,5.08,0,0,1-3.24,2.45,14.52,14.52,0,0,1-3.64.54A6.58,6.58,0,0,1,7,14.3l-.57-.22-.51.32Zm15.72,1-.51.43.08.66L19.74,19l-1.68-1-.51-.32-.57.22a6.6,6.6,0,0,1-2.4.39,14.08,14.08,0,0,1-3.64-.54,5.12,5.12,0,0,1-2.85-1.86,10.06,10.06,0,0,0,1.33.09,15.29,15.29,0,0,0,4-.58,6.21,6.21,0,0,0,.61-.2h4.75a.51.51,0,1,0,0-1H15.83a6.21,6.21,0,0,0,1.25-1.36h1.66a.52.52,0,0,0,0-1h-1.1A5.36,5.36,0,0,0,18,8.18v0a5.43,5.43,0,0,1,3.44,3.06l0,0h0A4.56,4.56,0,0,1,20,16.47Z"/><rect class="cls-2" width="24" height="24"/></g></g></svg>