<svg xmlns="http://www.w3.org/2000/svg" viewBox="0 0 48 48"><defs><style>.cls-1{fill:#4b4b4b;}.cls-2{fill:none;}</style></defs><title>Icon_48px_conversa</title><g id="Camada_2" data-name="Camada 2"><g id="Camada_1-2" data-name="Camada 1"><path class="cls-1" d="M10.59,17.57H27.26a1,1,0,0,0,0-2.05H10.59a1,1,0,1,0,0,2.05Z"/><path class="cls-1" d="M28.28,21.31a1,1,0,0,0-1-1H10.59a1,1,0,1,0,0,2H27.26A1,1,0,0,0,28.28,21.31Z"/><path class="cls-1" d="M45.07,21.58l0-.06c-.83-2.11-3.38-6.46-10.42-8.1-1.9-3.22-6.17-7.68-15.24-7.68h-.19C7.64,5.82,4,11.88,3,14.48l0,.07A11.5,11.5,0,0,0,6.5,27.77L5.66,34.1h0l-.07.53a.34.34,0,0,0,.05.24.08.08,0,0,0,0,0l.08.14a.41.41,0,0,0,.33.18.35.35,0,0,0,.19-.06L9.2,33.34l.06-.05L13,31c.11.22.22.45.34.66a12.54,12.54,0,0,0,8,6,30.88,30.88,0,0,0,7.91,1.16,15.12,15.12,0,0,0,5.68-.95l3.9,2.44.06,0,2.93,1.83a.35.35,0,0,0,.19.06.41.41,0,0,0,.33-.18l.08-.14a.05.05,0,0,0,0,0,.29.29,0,0,0,0-.24l-.07-.52h0L41.5,34.8A11.5,11.5,0,0,0,45.07,21.58ZM8.52,30.92l.37-2.83.18-1.33-1-.85A9.07,9.07,0,0,1,5.15,15.5v-.06l0-.07c.85-2.14,3.92-7.15,14-7.22h.19c11.06,0,13.81,7.41,14.25,8.89a8.84,8.84,0,0,1-1,6.38,10.22,10.22,0,0,1-6.48,4.89,28.22,28.22,0,0,1-7.28,1.08,13.19,13.19,0,0,1-4.8-.78l-1.13-.45-1,.65Zm31.44,2-1,.85.18,1.33L39.48,38l-3.36-2.11-1-.65L34,35.64a13.19,13.19,0,0,1-4.8.78,28.22,28.22,0,0,1-7.28-1.08,10.26,10.26,0,0,1-5.71-3.72,18.69,18.69,0,0,0,2.67.18,30.88,30.88,0,0,0,7.91-1.16c.43-.12.83-.25,1.22-.39h9.5a1,1,0,1,0,0-2.05H31.66a12.44,12.44,0,0,0,2.5-2.72h3.31a1,1,0,1,0,0-2.05H35.28a10.84,10.84,0,0,0,.66-7.08l0,0c4.55,1.62,6.28,4.58,6.89,6.11l0,.06v.05A9.09,9.09,0,0,1,40,32.94Z"/><rect class="cls-2" width="48" height="48"/></g></g></svg>