<svg xmlns="http://www.w3.org/2000/svg" viewBox="0 0 36 36"><defs><style>.cls-1{fill:#4b4b4b;}.cls-2{fill:none;}</style></defs><title>Icon_36px_conversa</title><g id="Camada_2" data-name="Camada 2"><g id="Camada_1-2" data-name="Camada 1"><path class="cls-1" d="M7.94,13.17h12.5a.77.77,0,1,0,0-1.53H7.94a.77.77,0,1,0,0,1.53Z"/><path class="cls-1" d="M21.21,16a.77.77,0,0,0-.77-.77H7.94a.77.77,0,0,0,0,1.54h12.5A.76.76,0,0,0,21.21,16Z"/><path class="cls-1" d="M33.8,16.18l0,0c-.62-1.58-2.53-4.85-7.81-6.07-1.43-2.42-4.63-5.76-11.44-5.76h-.14C5.73,4.37,3,8.91,2.22,10.86l0,.05a8.64,8.64,0,0,0,2.68,9.92l-.63,4.75h0l0,.39a.22.22,0,0,0,0,.18,0,0,0,0,0,0,0l.07.11a.29.29,0,0,0,.39.09L6.9,25l0,0,2.77-1.74c.08.17.16.33.25.49a9.4,9.4,0,0,0,6,4.53,23,23,0,0,0,5.93.87,11.31,11.31,0,0,0,4.26-.71l2.92,1.83.05,0,2.19,1.37a.28.28,0,0,0,.15,0,.26.26,0,0,0,.24-.13l.07-.1a0,0,0,0,0,0,0,.26.26,0,0,0,0-.19l-.05-.39h0l-.63-4.75A8.63,8.63,0,0,0,33.8,16.18Zm-27.41,7,.28-2.12.13-1L6,19.43a6.82,6.82,0,0,1-2.17-7.81v0l0-.05c.64-1.61,2.94-5.36,10.5-5.41h.14c8.29,0,10.35,5.55,10.68,6.66a6.63,6.63,0,0,1-.77,4.79,7.66,7.66,0,0,1-4.86,3.66,21.12,21.12,0,0,1-5.46.81,9.88,9.88,0,0,1-3.6-.58l-.85-.34-.77.49ZM30,24.71l-.77.64.13,1,.28,2.12-2.52-1.58-.77-.49-.85.34a9.87,9.87,0,0,1-3.6.59,21.56,21.56,0,0,1-5.46-.81,7.79,7.79,0,0,1-4.28-2.79,14.37,14.37,0,0,0,2,.13A23,23,0,0,0,20.06,23c.32-.09.63-.19.92-.29H28.1a.77.77,0,1,0,0-1.54H23.74a9,9,0,0,0,1.88-2H28.1a.77.77,0,0,0,0-1.54H26.46a8,8,0,0,0,.49-5.3v0a8.17,8.17,0,0,1,5.16,4.58l0,.05v0A6.82,6.82,0,0,1,30,24.71Z"/><rect class="cls-2" width="36" height="36"/></g></g></svg>