<svg xmlns="http://www.w3.org/2000/svg" viewBox="0 0 100 100"><defs><style>.cls-1{fill:#4b4b4b;}.cls-2{fill:none;}</style></defs><title>Icon_100px_mensagem</title><g id="Camada_2" data-name="Camada 2"><g id="Camada_1-2" data-name="Camada 1"><path class="cls-1" d="M96.07,52.43V24h0v0c0-.09,0-.18,0-.28v0A9.86,9.86,0,0,0,95.91,22c0-.07,0-.13,0-.2a.36.36,0,0,1,0-.11l0-.06a1.89,1.89,0,0,0,0-.23v0a3.38,3.38,0,0,0-.08-.34l0,0-.09-.3,0-.07-.09-.27,0-.08a2.77,2.77,0,0,1-.1-.26l0-.07c0-.1-.09-.21-.14-.31h0a10.1,10.1,0,0,0-1.36-2.17l0,0-.09-.11-.11-.13L93.43,17l0-.05c-.17-.18-.35-.36-.54-.53l-.08-.08-.15-.13-.15-.13L92.38,16a10.29,10.29,0,0,0-2.25-1.38L90,14.57l-.14-.06-.06,0-.27-.11h0l-.28-.1-.06,0-.26-.07-.09,0-.22-.05-.14,0-.15,0L88,14h0l-.58-.09c-.35,0-.7-.06-1.05-.07H13.65c-.35,0-.7,0-1.05.07L12,14h0l-.21,0-.15,0-.14,0-.22.05-.09,0-.26.07-.06,0-.28.1h-.05l-.27.11-.06,0-.14.06-.18.07A10.29,10.29,0,0,0,7.62,16l-.09.07-.15.13-.15.13-.08.08c-.19.17-.37.35-.54.53l0,.05-.14.15-.11.13-.09.11,0,0a10.1,10.1,0,0,0-1.36,2.17h0c0,.1-.09.21-.14.31l0,.07a2.77,2.77,0,0,1-.1.26l0,.08-.09.27,0,.07-.09.3,0,0a3.38,3.38,0,0,0-.08.34v0a1.89,1.89,0,0,0,0,.23l0,.06a.36.36,0,0,1,0,.11c0,.07,0,.13,0,.2a9.86,9.86,0,0,0-.15,1.62v0c0,.1,0,.19,0,.28v0h0V52.43h0q0,11.32,0,22.65c0,.4,0,.8,0,1.2a9.82,9.82,0,0,0,1.69,5.53,9.92,9.92,0,0,0,2.82,2.77,9.95,9.95,0,0,0,5.43,1.61H86.12a9.95,9.95,0,0,0,5.43-1.61,9.92,9.92,0,0,0,2.82-2.77,9.82,9.82,0,0,0,1.69-5.53c0-.4,0-.8,0-1.2q0-11.32,0-22.65ZM50,46l0,0,0,0-.18-.11L13.34,20.61s0,0,0-.05v0a.24.24,0,0,1,.08-.06l.28-.07H86.34l.28.07a.24.24,0,0,1,.08.06v0s0,0,0,.05L50.22,45.85ZM89.47,76.43a3.23,3.23,0,0,1-2.39,3,3.66,3.66,0,0,1-1.09.13H14a3.66,3.66,0,0,1-1.09-.13,3.23,3.23,0,0,1-2.39-3c0-.14,0-.28,0-.42V36.9c0-3.35,0-6.71,0-10.06,0,0,0,0,0-.06l0,0h.06l9.79,6.77,9.86,6.83,9.84,6.81,9,6.21.62.43.12.08L50,54h0l.16-.11.12-.08.62-.43,9-6.21,9.84-6.81,9.86-6.83,9.79-6.77h.06l0,0s0,0,0,.06c0,3.35,0,6.71,0,10.06V76C89.48,76.15,89.47,76.29,89.47,76.43Z"/><rect class="cls-2" width="100" height="100"/></g></g></svg>