<svg xmlns="http://www.w3.org/2000/svg" viewBox="0 0 30 30"><defs><style>.cls-1{fill:#4b4b4b;}.cls-2{fill:none;}</style></defs><title>Icon_30px_mensagem</title><g id="Camada_2" data-name="Camada 2"><g id="Camada_1-2" data-name="Camada 1"><path class="cls-1" d="M28.45,15.71V7.39h0V7.3h0a2.42,2.42,0,0,0,0-.47V6.71s0,0,0-.07h0l0-.09v0l0-.08v0a.19.19,0,0,0,0-.08v0l0-.08v0a.36.36,0,0,0,0-.09h0a2.67,2.67,0,0,0-.4-.63h0l0,0,0,0,0,0v0l-.16-.16,0,0,0,0-.05,0,0,0a2.81,2.81,0,0,0-.66-.41l0,0,0,0h0l-.08,0h0l-.09,0h0l-.08,0h-.17l-.07,0h0l-.17,0-.31,0H4.39l-.31,0-.17,0h0l-.07,0H3.66l-.08,0h0l-.09,0h0l-.08,0h0l0,0-.05,0a2.81,2.81,0,0,0-.66.41l0,0-.05,0,0,0,0,0-.16.16v0l0,0,0,0,0,0h0a2.67,2.67,0,0,0-.4.63h0a.36.36,0,0,0,0,.09v0l0,.08v0a.19.19,0,0,0,0,.08v0l0,.08v0l0,.09h0s0,.05,0,.07v.11a2.42,2.42,0,0,0,0,.47h0v.08h0v8.32h0v7A2.83,2.83,0,0,0,2,24.29a2.91,2.91,0,0,0,.83.81,2.85,2.85,0,0,0,.93.4,3.59,3.59,0,0,0,.65.07h21.1a3.59,3.59,0,0,0,.65-.07,2.85,2.85,0,0,0,.93-.4,2.91,2.91,0,0,0,.83-.81,2.83,2.83,0,0,0,.49-1.62v-7ZM15,13.82h0l-.06,0L4.29,6.42v0h0l0,0,.09,0H25.61l.09,0,0,0h0v0L15.07,13.79Zm11.52,8.9a1.3,1.3,0,0,1-.07.33.91.91,0,0,1-.63.56,1.12,1.12,0,0,1-.32,0h-21a1.12,1.12,0,0,1-.32,0,.91.91,0,0,1-.63-.56,1.3,1.3,0,0,1-.07-.33V8.22h0l2.86,2,2.88,2,2.87,2L14.73,16l.18.13,0,0,.05,0h0l.05,0,0,0,.18-.13,2.62-1.81,2.87-2,2.88-2,2.86-2h0v14.5Z"/><rect class="cls-2" width="30" height="30"/></g></g></svg>