<svg xmlns="http://www.w3.org/2000/svg" viewBox="0 0 32 32"><defs><style>.cls-1{fill:#4b4b4b;}.cls-2{fill:none;}</style></defs><title>Icon_32px_mensagem</title><g id="Camada_2" data-name="Camada 2"><g id="Camada_1-2" data-name="Camada 1"><path class="cls-1" d="M31.1,16.8V7.46h0V7.36h0a4.53,4.53,0,0,0-.05-.53.64.64,0,0,0,0-.07v0h0a.24.24,0,0,0,0-.08h0l0-.11h0l0-.1v0l0-.09v0l0-.08v0a1,1,0,0,1,0-.1h0a3.1,3.1,0,0,0-.44-.71v0l0,0,0,0-.05,0v0A1.45,1.45,0,0,0,30,5l0,0-.05,0,0,0,0,0a3.25,3.25,0,0,0-.74-.45l-.06,0,0,0h0l-.09,0h0l-.09,0h0l-.08,0h0l-.07,0h-.18l-.19,0a2.07,2.07,0,0,0-.35,0H4.09a2.07,2.07,0,0,0-.35,0l-.19,0H3.37l-.07,0h0l-.08,0h0l-.09,0h0L3,4.36H3l0,0-.06,0a3.25,3.25,0,0,0-.74.45l0,0L2,4.93,2,5,2,5a1.45,1.45,0,0,0-.18.17v0l-.05,0,0,0,0,0v0A3.1,3.1,0,0,0,1.2,6h0a1,1,0,0,1,0,.1v0l0,.08v0l0,.09v0l0,.1H1l0,.11H1A.24.24,0,0,0,1,6.7H1v0a.64.64,0,0,0,0,.07,4.53,4.53,0,0,0,0,.53h0v.09h0V16.8h0v7.81a3.28,3.28,0,0,0,.56,1.82,3.16,3.16,0,0,0,.92.9,3,3,0,0,0,1.05.45,3.55,3.55,0,0,0,.73.08H27.84a3.55,3.55,0,0,0,.73-.08,3,3,0,0,0,1.05-.45,3.16,3.16,0,0,0,.92-.9,3.28,3.28,0,0,0,.56-1.82V16.8ZM16,14.68h0l-.06,0L4,6.37v0H4l0,0,.09,0H27.91l.09,0,0,0h0v0L16.07,14.64Zm12.93,10a1.17,1.17,0,0,1-.08.37,1,1,0,0,1-.71.63,1,1,0,0,1-.35,0H4.2a1,1,0,0,1-.35,0A1,1,0,0,1,3.14,25a1.17,1.17,0,0,1-.08-.37V8.39h0L6.3,10.6l3.24,2.24,3.22,2.23,2.94,2,.2.14,0,0,.06,0h0l.06,0,0,0,.2-.14,2.94-2,3.22-2.23L25.7,10.6l3.2-2.22h0V24.66Z"/><rect class="cls-2" width="32" height="32"/></g></g></svg>