<svg xmlns="http://www.w3.org/2000/svg" viewBox="0 0 32 32"><defs><style>.cls-1,.cls-3{fill:#488ff9;}.cls-1,.cls-2{fill-rule:evenodd;}.cls-2,.cls-4{fill:none;}</style></defs><title>Icon_32px_ag-aprovacao</title><g id="Camada_2" data-name="Camada 2"><g id="Camada_1-2" data-name="Camada 1"><polygon class="cls-1" points="16.44 18.66 10.79 12.94 8.83 14.92 16.43 22.62 30.89 8.06 30.89 8.05 28.93 6.07 16.44 18.66"/><path class="cls-2" d="M25.65,15.56l0,9.63a2.12,2.12,0,0,1-2.13,2.12l-18.34,0A2.13,2.13,0,0,1,3,25.15l0-18.34A2.12,2.12,0,0,1,5.2,4.69l18.34,0a2.13,2.13,0,0,1,2.12,2.13v.31l1.69-1.69a4,4,0,0,0-3.81-2.68L5.2,2.76A4.06,4.06,0,0,0,1.14,6.81l0,18.34a4.05,4.05,0,0,0,4.05,4.06l18.34,0a4.08,4.08,0,0,0,4.07-4V13.63Z"/><path class="cls-3" d="M25.65,15.56l0,9.63a2.12,2.12,0,0,1-2.13,2.12l-18.34,0A2.13,2.13,0,0,1,3,25.15l0-18.34A2.12,2.12,0,0,1,5.2,4.69l18.34,0a2.13,2.13,0,0,1,2.12,2.13v.31l1.69-1.69a4,4,0,0,0-3.81-2.68L5.2,2.76A4.06,4.06,0,0,0,1.14,6.81l0,18.34a4.05,4.05,0,0,0,4.05,4.06l18.34,0a4.08,4.08,0,0,0,4.07-4V13.63Z"/><rect class="cls-4" width="32" height="32"/></g></g></svg>