<svg xmlns="http://www.w3.org/2000/svg" viewBox="0 0 100 100"><defs><style>.cls-1,.cls-3{fill:#488ff9;}.cls-1,.cls-2{fill-rule:evenodd;}.cls-2,.cls-4{fill:none;}</style></defs><title>Icon_100px_ag-aprovacao</title><g id="Camada_2" data-name="Camada 2"><g id="Camada_1-2" data-name="Camada 1"><polygon class="cls-1" points="51.37 58.3 33.73 40.43 27.59 46.61 51.35 70.68 96.54 25.18 96.54 25.17 90.42 18.97 51.37 58.3"/><path class="cls-2" d="M80.15,48.63l0,30.07a6.67,6.67,0,0,1-6.66,6.64l-57.32-.09A6.65,6.65,0,0,1,9.5,78.59L9.58,21.3a6.67,6.67,0,0,1,6.66-6.64l57.32.09a6.67,6.67,0,0,1,6.64,6.66v1l5.29-5.27A12.7,12.7,0,0,0,73.57,8.72L16.25,8.63A12.7,12.7,0,0,0,3.55,21.29L3.46,78.58a12.7,12.7,0,0,0,12.66,12.7l57.32.09a12.7,12.7,0,0,0,12.7-12.66L86.2,42.6Z"/><path class="cls-3" d="M80.15,48.63l0,30.07a6.67,6.67,0,0,1-6.66,6.64l-57.32-.09A6.65,6.65,0,0,1,9.5,78.59L9.58,21.3a6.67,6.67,0,0,1,6.66-6.64l57.32.09a6.67,6.67,0,0,1,6.64,6.66v1l5.29-5.27A12.7,12.7,0,0,0,73.57,8.72L16.25,8.63A12.7,12.7,0,0,0,3.55,21.29L3.46,78.58a12.7,12.7,0,0,0,12.66,12.7l57.32.09a12.7,12.7,0,0,0,12.7-12.66L86.2,42.6Z"/><rect class="cls-4" width="100" height="100"/></g></g></svg>