<svg xmlns="http://www.w3.org/2000/svg" viewBox="0 0 30 30"><defs><style>.cls-1,.cls-3{fill:#488ff9;}.cls-1,.cls-2{fill-rule:evenodd;}.cls-2,.cls-4{fill:none;}</style></defs><title>Icon_30px_ag-aprovacao</title><g id="Camada_2" data-name="Camada 2"><g id="Camada_1-2" data-name="Camada 1"><polygon class="cls-1" points="15.41 17.49 10.12 12.13 8.28 13.98 15.4 21.2 28.96 7.55 28.96 7.55 27.13 5.69 15.41 17.49"/><path class="cls-2" d="M24.05,14.59l0,9a2,2,0,0,1-2,2l-17.2,0a2,2,0,0,1-2-2l0-17.19a2,2,0,0,1,2-2l17.2,0a2,2,0,0,1,2,2v.29l1.58-1.58a3.8,3.8,0,0,0-3.57-2.51l-17.2,0a3.82,3.82,0,0,0-3.81,3.8L1,23.58a3.8,3.8,0,0,0,3.8,3.8l17.19,0a3.81,3.81,0,0,0,3.81-3.8l0-10.83Z"/><path class="cls-3" d="M24.05,14.59l0,9a2,2,0,0,1-2,2l-17.2,0a2,2,0,0,1-2-2l0-17.19a2,2,0,0,1,2-2l17.2,0a2,2,0,0,1,2,2v.29l1.58-1.58a3.8,3.8,0,0,0-3.57-2.51l-17.2,0a3.82,3.82,0,0,0-3.81,3.8L1,23.58a3.8,3.8,0,0,0,3.8,3.8l17.19,0a3.81,3.81,0,0,0,3.81-3.8l0-10.83Z"/><rect class="cls-4" width="30" height="30"/></g></g></svg>