<svg xmlns="http://www.w3.org/2000/svg" viewBox="0 0 24 24"><defs><style>.cls-1{fill:#4b4b4b;}.cls-2{fill:none;}</style></defs><title>Icon_24px_evento</title><g id="Camada_2" data-name="Camada 2"><g id="Camada_1-2" data-name="Camada 1"><path class="cls-1" d="M19.64,3.34H18.45V2.57a.74.74,0,0,0-.57-.74.73.73,0,0,0-.88.71v.8H12.8V2.59a.75.75,0,0,0-.58-.74.73.73,0,0,0-.87.71v.78H7.15V2.57a.75.75,0,0,0-.58-.74.73.73,0,0,0-.87.71v.8H4.36a3,3,0,0,0-3,3V19.17a3,3,0,0,0,3,3H19.64a3,3,0,0,0,3-3V6.35A3,3,0,0,0,19.64,3.34Zm1.56,15.8a1.59,1.59,0,0,1-1.59,1.59H4.39A1.59,1.59,0,0,1,2.8,19.14V9.87H21.2Zm0-10.72H2.8v-2a1.6,1.6,0,0,1,1.59-1.6H5.7V6a.74.74,0,0,0,.57.74A.73.73,0,0,0,7.15,6V4.79h4.2V6a.74.74,0,0,0,.57.74A.73.73,0,0,0,12.8,6V4.79H17V6a.74.74,0,0,0,.57.74A.73.73,0,0,0,18.45,6V4.79h1.16a1.6,1.6,0,0,1,1.59,1.6Z"/><path class="cls-1" d="M7.12,11.23H5.05a.64.64,0,0,0-.63.64v2.06a.64.64,0,0,0,.63.64H7.11a.64.64,0,0,0,.64-.64V11.86a.63.63,0,0,0-.63-.63Z"/><rect class="cls-2" width="24" height="24"/></g></g></svg>