<svg xmlns="http://www.w3.org/2000/svg" viewBox="0 0 36 36"><defs><style>.cls-1{fill:#4b4b4b;}.cls-2{fill:none;}</style></defs><title>Icon_36px_evento</title><g id="Camada_2" data-name="Camada 2"><g id="Camada_1-2" data-name="Camada 1"><path class="cls-1" d="M29.46,5H27.67V3.85a1.11,1.11,0,0,0-.86-1.1A1.09,1.09,0,0,0,25.5,3.81V5H19.2V3.88a1.11,1.11,0,0,0-.86-1.1A1.09,1.09,0,0,0,17,3.84V5h-6.3V3.85a1.11,1.11,0,0,0-.86-1.1A1.09,1.09,0,0,0,8.54,3.81V5h-2A4.53,4.53,0,0,0,2,9.53V28.76a4.53,4.53,0,0,0,4.52,4.51H29.46A4.53,4.53,0,0,0,34,28.76V9.53A4.53,4.53,0,0,0,29.46,5ZM31.8,28.71a2.39,2.39,0,0,1-2.39,2.39H6.59A2.39,2.39,0,0,1,4.2,28.71V14.8H31.8Zm0-16.09H4.2v-3A2.39,2.39,0,0,1,6.59,7.19H8.54V8.93A1.11,1.11,0,0,0,9.4,10,1.09,1.09,0,0,0,10.72,9V7.19H17V9a1.11,1.11,0,0,0,.86,1.1A1.09,1.09,0,0,0,19.2,9V7.19h6.3V8.93a1.11,1.11,0,0,0,.86,1.1A1.09,1.09,0,0,0,27.67,9V7.19h1.74A2.39,2.39,0,0,1,31.8,9.58Z"/><path class="cls-1" d="M10.69,16.85H7.58a1,1,0,0,0-1,.95v3.1a1,1,0,0,0,1,1h3.09a1,1,0,0,0,.95-1V17.79a.94.94,0,0,0-.93-.94Z"/><rect class="cls-2" width="36" height="36"/></g></g></svg>