<svg xmlns="http://www.w3.org/2000/svg" viewBox="0 0 48 48"><defs><style>.cls-1{fill:#4b4b4b;}.cls-2{fill:none;}</style></defs><title>Icon_48px_evento</title><g id="Camada_2" data-name="Camada 2"><g id="Camada_1-2" data-name="Camada 1"><path class="cls-1" d="M39.29,6.69H36.9V5.13a1.47,1.47,0,0,0-1.15-1.46A1.44,1.44,0,0,0,34,5.08V6.69H25.59V5.18a1.47,1.47,0,0,0-1.14-1.47A1.45,1.45,0,0,0,22.7,5.12V6.69H14.29V5.13a1.46,1.46,0,0,0-1.14-1.46,1.45,1.45,0,0,0-1.76,1.41V6.69H8.71a6,6,0,0,0-6,6V38.35a6,6,0,0,0,6,6H39.29a6,6,0,0,0,6-6V12.7A6,6,0,0,0,39.29,6.69ZM42.4,38.28a3.18,3.18,0,0,1-3.18,3.19H8.78A3.18,3.18,0,0,1,5.6,38.28V19.73H42.4Zm0-21.45H5.6v-4A3.18,3.18,0,0,1,8.78,9.59h2.61V11.9a1.48,1.48,0,0,0,1.15,1.47A1.45,1.45,0,0,0,14.29,12V9.59H22.7V12a1.46,1.46,0,0,0,1.14,1.46A1.44,1.44,0,0,0,25.59,12V9.59H34V11.9a1.47,1.47,0,0,0,1.14,1.47A1.45,1.45,0,0,0,36.9,12V9.59h2.32a3.18,3.18,0,0,1,3.18,3.19Z"/><path class="cls-1" d="M14.25,22.47H10.1a1.27,1.27,0,0,0-1.27,1.27v4.12a1.27,1.27,0,0,0,1.27,1.27h4.13a1.27,1.27,0,0,0,1.27-1.27V23.72a1.25,1.25,0,0,0-1.25-1.25Z"/><rect class="cls-2" width="48" height="48"/></g></g></svg>