<svg xmlns="http://www.w3.org/2000/svg" viewBox="0 0 30 30"><defs><style>.cls-1{fill:#4b4b4b;}.cls-2{fill:none;}</style></defs><title>Icon_30px_conversa</title><g id="Camada_2" data-name="Camada 2"><g id="Camada_1-2" data-name="Camada 1"><path class="cls-1" d="M6.62,11H17a.64.64,0,0,0,.64-.64A.64.64,0,0,0,17,9.7H6.62a.64.64,0,0,0,0,1.28Z"/><path class="cls-1" d="M17.68,13.32a.64.64,0,0,0-.64-.64H6.62a.64.64,0,1,0,0,1.28H17A.64.64,0,0,0,17.68,13.32Z"/><path class="cls-1" d="M28.17,13.49l0,0c-.52-1.32-2.11-4-6.51-5.06-1.19-2-3.86-4.8-9.53-4.8H12c-7.22.05-9.5,3.84-10.14,5.46l0,0a7.21,7.21,0,0,0,2.23,8.27l-.52,3.95h0l0,.33a.19.19,0,0,0,0,.15s0,0,0,0l.06.09a.23.23,0,0,0,.2.11.28.28,0,0,0,.12,0l1.83-1.14,0,0L8.1,19.36l.21.41a7.81,7.81,0,0,0,5,3.77,18.94,18.94,0,0,0,4.94.73,9.58,9.58,0,0,0,3.56-.59l2.43,1.52,0,0,1.83,1.14a.19.19,0,0,0,.12,0,.23.23,0,0,0,.2-.11l.06-.09v0a.21.21,0,0,0,0-.15l0-.33h0l-.52-4A7.19,7.19,0,0,0,28.17,13.49ZM5.32,19.32l.24-1.77.11-.82L5,16.19a5.68,5.68,0,0,1-1.8-6.51h0v0l0,0C3.78,8.27,5.7,5.14,12,5.1h.11C19,5.1,20.74,9.72,21,10.65a5.52,5.52,0,0,1-.65,4,6.34,6.34,0,0,1-4,3.05,17.74,17.74,0,0,1-4.55.68,8.3,8.3,0,0,1-3-.49l-.71-.28-.65.4ZM25,20.59l-.65.53.11.83.24,1.77-2.1-1.32L21.93,22l-.71.28a8.09,8.09,0,0,1-3,.49,17.7,17.7,0,0,1-4.55-.67,6.45,6.45,0,0,1-3.56-2.33,11.35,11.35,0,0,0,1.67.12,19.37,19.37,0,0,0,4.94-.73c.27-.07.52-.16.76-.24h5.94a.65.65,0,0,0,0-1.29H19.79a7.79,7.79,0,0,0,1.56-1.69h2.07a.65.65,0,0,0,0-1.29H22.05a6.75,6.75,0,0,0,.41-4.42v0A6.83,6.83,0,0,1,26.75,14l0,0h0v0A5.68,5.68,0,0,1,25,20.59Z"/><rect class="cls-2" width="30" height="30"/></g></g></svg>