<svg xmlns="http://www.w3.org/2000/svg" viewBox="0 0 100 100"><defs><style>.cls-1{fill:#4b4b4b;}.cls-2{fill:none;}</style></defs><title>Icon_100px_conversa</title><g id="Camada_2" data-name="Camada 2"><g id="Camada_1-2" data-name="Camada 1"><path class="cls-1" d="M22.06,36.6H56.79a2.14,2.14,0,0,0,0-4.28H22.06a2.14,2.14,0,1,0,0,4.28Z"/><path class="cls-1" d="M58.92,44.39a2.13,2.13,0,0,0-2.13-2.13H22.06a2.14,2.14,0,1,0,0,4.27H56.79A2.13,2.13,0,0,0,58.92,44.39Z"/><path class="cls-1" d="M93.89,45l0-.13c-1.74-4.37-7-13.45-21.71-16.86-4-6.71-12.86-16-31.76-16H40C15.91,12.13,8.31,24.76,6.16,30.18l0,.12a24,24,0,0,0,7.44,27.55L11.79,71h0l-.14,1.09a.76.76,0,0,0,.11.51.59.59,0,0,0,0,.08L12,73a.78.78,0,0,0,1.08.25l6.1-3.81.13-.1L27,64.53c.22.46.45.92.7,1.37A26.16,26.16,0,0,0,44.27,78.48,64,64,0,0,0,60.74,80.9a31.6,31.6,0,0,0,11.85-2L80.7,84l.13.1,6.1,3.81a.78.78,0,0,0,.41.12.8.8,0,0,0,.67-.37l.18-.29,0-.08a.77.77,0,0,0,.11-.52L88.2,85.7h0L86.45,72.5A24,24,0,0,0,93.89,45ZM17.74,64.41l.79-5.89.36-2.76L16.75,54a18.94,18.94,0,0,1-6-21.7l0-.05,0-.06.06-.14C12.61,27.55,19,17.13,40,17h.39c23,0,28.76,15.42,29.68,18.51,1.11,3.76.27,9-2.15,13.3A21.22,21.22,0,0,1,54.43,59a58.92,58.92,0,0,1-15.17,2.25,27.55,27.55,0,0,1-10-1.63l-2.36-.93L24.74,60Zm65.51,4.22-2.14,1.78.36,2.75.79,5.9-7-4.39-2.15-1.35-2.36.93a27.55,27.55,0,0,1-10,1.63,59.3,59.3,0,0,1-15.17-2.25,21.48,21.48,0,0,1-11.88-7.75,40.42,40.42,0,0,0,5.57.37,64,64,0,0,0,16.47-2.42c.89-.24,1.73-.52,2.54-.81H78.06a2.14,2.14,0,0,0,0-4.28H66a25.19,25.19,0,0,0,5.21-5.65h6.9a2.14,2.14,0,0,0,0-4.28H73.49c2.12-5,2.67-10.4,1.38-14.74l0-.09c9.48,3.37,13.07,9.53,14.34,12.72l0,.13,0,.05,0,0A18.94,18.94,0,0,1,83.25,68.63Z"/><rect class="cls-2" width="100" height="100"/></g></g></svg>