<svg xmlns="http://www.w3.org/2000/svg" viewBox="0 0 32 32"><defs><style>.cls-1{fill:#4b4b4b;}.cls-2{fill:none;}</style></defs><title>Icon_32px_conversa</title><g id="Camada_2" data-name="Camada 2"><g id="Camada_1-2" data-name="Camada 1"><path class="cls-1" d="M7.06,11.71H18.17a.69.69,0,1,0,0-1.37H7.06a.69.69,0,0,0,0,1.37Z"/><path class="cls-1" d="M18.86,14.21a.69.69,0,0,0-.69-.69H7.06a.69.69,0,0,0,0,1.37H18.17A.69.69,0,0,0,18.86,14.21Z"/><path class="cls-1" d="M30,14.38v0c-.56-1.4-2.26-4.3-7-5.39C21.81,6.8,19,3.83,12.92,3.83h-.13C5.09,3.88,2.66,7.92,2,9.66v0a7.64,7.64,0,0,0,2.38,8.81l-.57,4.22h0l0,.34a.25.25,0,0,0,0,.17s0,0,0,0l.06.1a.25.25,0,0,0,.21.11.28.28,0,0,0,.13,0l2-1.22,0,0,2.46-1.55a4.64,4.64,0,0,0,.23.44,8.34,8.34,0,0,0,5.3,4,20.26,20.26,0,0,0,5.27.78,10,10,0,0,0,3.79-.64l2.59,1.63.05,0,1.95,1.21a.2.2,0,0,0,.13,0,.24.24,0,0,0,.21-.12l.06-.09v0a.25.25,0,0,0,0-.17l-.05-.35h0l-.57-4.22A7.66,7.66,0,0,0,30,14.38ZM5.68,20.61l.25-1.89.12-.88-.69-.57a6.07,6.07,0,0,1-1.93-6.94v0h0l0-.05C4,8.82,6.08,5.48,12.8,5.44h.12c7.37,0,9.2,4.93,9.5,5.92a5.9,5.9,0,0,1-.69,4.26,6.8,6.8,0,0,1-4.31,3.25,18.88,18.88,0,0,1-4.86.72,8.72,8.72,0,0,1-3.2-.52l-.75-.3-.69.44Zm21,1.35-.69.57.12.88.25,1.89-2.24-1.41-.69-.43-.75.3a8.72,8.72,0,0,1-3.2.52,18.88,18.88,0,0,1-4.86-.72,6.89,6.89,0,0,1-3.8-2.48,13,13,0,0,0,1.78.12,20.65,20.65,0,0,0,5.27-.77c.29-.08.56-.17.82-.26H25a.68.68,0,0,0,.68-.69A.67.67,0,0,0,25,18.8H21.11A8.3,8.3,0,0,0,22.77,17H25a.69.69,0,0,0,0-1.37H23.52A7.2,7.2,0,0,0,24,10.9v0a7.32,7.32,0,0,1,4.59,4.07V15h0v0A6.07,6.07,0,0,1,26.64,22Z"/><rect class="cls-2" width="32" height="32"/></g></g></svg>