<svg xmlns="http://www.w3.org/2000/svg" viewBox="0 0 36 36"><defs><style>.cls-1{fill:#4b4b4b;}.cls-2{fill:none;}</style></defs><title>Icon_36px_mensagem</title><g id="Camada_2" data-name="Camada 2"><g id="Camada_1-2" data-name="Camada 1"><path class="cls-1" d="M35,18.9q0-5.25,0-10.5h0v0s0-.06,0-.1h0a4,4,0,0,0,0-.6.64.64,0,0,0,0-.07V7.53l0-.08h0l0-.12v0l0-.11v0a.69.69,0,0,0,0-.1V7l0-.1v0a.54.54,0,0,1-.05-.11h0a3.29,3.29,0,0,0-.5-.79V6l0,0,0-.05-.06,0v0l-.2-.2,0,0-.05,0-.06,0,0,0A4.11,4.11,0,0,0,32.8,5l-.07,0,0,0h0l-.1,0h0l-.1,0h0l-.09,0h0l-.08,0h-.1l-.08,0h0l-.21,0a2.56,2.56,0,0,0-.39,0H4.6a2.56,2.56,0,0,0-.39,0L4,4.72H4l-.08,0H3.8l-.08,0h0l-.09,0h0l-.1,0h0l-.1,0h0l0,0L3.2,5a4.11,4.11,0,0,0-.83.51l0,0-.06,0,0,0,0,0a1.89,1.89,0,0,0-.2.2v0l-.06,0,0,.05,0,0V6a3.29,3.29,0,0,0-.5.79h0a.54.54,0,0,1-.05.11v0l0,.1v0l0,.1v0l0,.11v0l0,.12h0l0,.08V7.6a.64.64,0,0,0,0,.07,4,4,0,0,0-.05.6H1s0,.07,0,.1H1q0,5.25,0,10.5H1v8.35c0,.14,0,.29,0,.44a3.63,3.63,0,0,0,.62,2,3.74,3.74,0,0,0,1,1,3.42,3.42,0,0,0,1.18.5,3.75,3.75,0,0,0,.82.09H31.32a3.75,3.75,0,0,0,.82-.09,3.42,3.42,0,0,0,1.18-.5,3.74,3.74,0,0,0,1-1,3.63,3.63,0,0,0,.62-2c0-.15,0-.3,0-.44V18.9ZM18,16.51h0l-.06,0L4.48,7.16h0l0,0a.38.38,0,0,1,.1,0H31.4a.38.38,0,0,1,.1,0l0,0h0L18.08,16.47ZM32.55,27.74a1.17,1.17,0,0,1-.88,1.13,1.33,1.33,0,0,1-.4.05H4.73a1.33,1.33,0,0,1-.4-.05,1.17,1.17,0,0,1-.88-1.13s0-.1,0-.15V13.17c0-1.24,0-2.47,0-3.71v0h0l3.61,2.49,3.64,2.52L14.36,17l3.31,2.29.22.16.05,0,.06,0h0l.06,0,.05,0,.22-.16L21.64,17l3.63-2.51,3.64-2.52,3.61-2.49h0v0c0,1.24,0,2.47,0,3.71V27.59C32.56,27.64,32.55,27.69,32.55,27.74Z"/><rect class="cls-2" width="36" height="36"/></g></g></svg>