<svg xmlns="http://www.w3.org/2000/svg" viewBox="0 0 48 48"><defs><style>.cls-1{fill:#4b4b4b;}.cls-2{fill:none;}</style></defs><title>Icon_48px_mensagem</title><g id="Camada_2" data-name="Camada 2"><g id="Camada_1-2" data-name="Camada 1"><path class="cls-1" d="M46.11,25.17V11.5h0v-.17a6.85,6.85,0,0,0-.07-.78.29.29,0,0,1,0-.09v-.09l0-.11h0c0-.05,0-.11,0-.16v0c0-.05,0-.1,0-.14v0s0-.08,0-.13v0c0-.05,0-.09-.05-.13v0a1,1,0,0,0-.07-.15h0a4.75,4.75,0,0,0-.65-1l0,0,0,0-.06-.06-.06-.08,0,0-.26-.26,0,0-.07-.06-.08-.07,0,0A4.23,4.23,0,0,0,43.26,7l-.08,0-.07,0h0L43,6.9h0l-.14-.05h0l-.12,0,0,0-.1,0-.07,0h-.07l-.1,0h0l-.28,0-.5,0H6.55l-.5,0-.28,0h0l-.1,0H5.58l-.07,0-.1,0,0,0-.12,0h0l-.14.05h0L4.92,7h0L4.82,7,4.74,7a4.23,4.23,0,0,0-1.08.66l0,0-.08.07-.07.06,0,0-.26.26,0,0-.06.08L3,8.3l0,0,0,0a4.75,4.75,0,0,0-.65,1h0a1,1,0,0,0-.07.15v0s0,.08-.05.13v0c0,.05,0,.09-.05.13v0s0,.09,0,.14v0c0,.05,0,.11,0,.16H2l0,.11v.09a.29.29,0,0,1,0,.09,6.85,6.85,0,0,0-.07.78v.15h0V25.17h0V36.61a4.66,4.66,0,0,0,.81,2.66A4.79,4.79,0,0,0,4.06,40.6a4.47,4.47,0,0,0,1.54.65,4.72,4.72,0,0,0,1.06.12H41.34a4.72,4.72,0,0,0,1.06-.12,4.47,4.47,0,0,0,1.54-.65,4.79,4.79,0,0,0,1.36-1.33,4.66,4.66,0,0,0,.81-2.66V25.17ZM24,22.06h0l-.09,0L6.4,9.89l0,0h0l0,0,.14,0H41.44l.14,0,0,0h0l0,0L24.11,22ZM43,36.68a1.68,1.68,0,0,1-.11.55,1.52,1.52,0,0,1-1,.92,1.85,1.85,0,0,1-.52.06H6.72a1.85,1.85,0,0,1-.52-.06,1.52,1.52,0,0,1-1-.92,1.68,1.68,0,0,1-.11-.55V12.85h0l4.7,3.25,4.74,3.28,4.72,3.27,4.3,3,.3.2.06,0,.08.06h0l.08-.06.06,0,.3-.2,4.3-3,4.72-3.27,4.74-3.28,4.7-3.25h0V36.68Z"/><rect class="cls-2" width="48" height="48"/></g></g></svg>