<svg xmlns="http://www.w3.org/2000/svg" viewBox="0 0 24 24"><defs><style>.cls-1{fill:#4b4b4b;}.cls-2{fill:none;}</style></defs><title>Icon_24px_mensagem</title><g id="Camada_2" data-name="Camada 2"><g id="Camada_1-2" data-name="Camada 1"><path class="cls-1" d="M22.76,12.57V5.92h0V5.84h0a2.53,2.53,0,0,0,0-.38V5.38h0V5.31h0a.24.24,0,0,0,0-.08h0s0,0,0-.07v0a.14.14,0,0,0,0-.06v0l0-.06V5a.43.43,0,0,1,0-.07h0a2.25,2.25,0,0,0-.31-.51h0l0,0,0,0,0,0h0L22,4.16l0,0,0,0,0,0,0,0a2,2,0,0,0-.53-.32l0,0h0l-.07,0h0l-.06,0h0l-.06,0h-.2l-.13,0H3.26l-.13,0h-.2l-.06,0h0l-.06,0h0l-.07,0h0l0,0a2,2,0,0,0-.53.32l0,0,0,0,0,0,0,0-.13.12h0l0,0,0,0,0,0h0a2.25,2.25,0,0,0-.31.51h0a.43.43,0,0,1,0,.07V5l0,.06v0a.14.14,0,0,0,0,.06v0s0,0,0,.07h0a.24.24,0,0,0,0,.08h0v.06h0v.07a2.43,2.43,0,0,0,0,.38h0v.07h0v6.65h0v5.57a2.28,2.28,0,0,0,.39,1.29,2.4,2.4,0,0,0,.66.65A2.27,2.27,0,0,0,3,20.4a2.31,2.31,0,0,0,.52.06H20.44A2.31,2.31,0,0,0,21,20.4a2.27,2.27,0,0,0,.75-.32,2.4,2.4,0,0,0,.66-.65,2.28,2.28,0,0,0,.39-1.29V12.57ZM12,11.06h0l0,0L3.43,5.13h0s0,0,0,0H20.56s0,0,0,0h0L12.05,11Zm9.21,7.11a.81.81,0,0,1,0,.27.77.77,0,0,1-.51.45,1,1,0,0,1-.25,0H3.59a1,1,0,0,1-.25,0,.77.77,0,0,1-.51-.45.81.81,0,0,1-.05-.27V6.57h0L5.09,8.15c.77.53,1.54,1.06,2.3,1.6l2.3,1.59,2.1,1.45.14.1,0,0,0,0h0l0,0,0,0,.14-.1,2.1-1.45,2.3-1.59c.76-.54,1.53-1.07,2.3-1.6L21.2,6.57h0v11.6Z"/><rect class="cls-2" width="24" height="24"/></g></g></svg>