<svg xmlns="http://www.w3.org/2000/svg" viewBox="0 0 100 100"><defs><style>.cls-1{fill:#4b4b4b;}.cls-2{fill:none;}</style></defs><title>Icon_100px_saida</title><g id="Camada_2" data-name="Camada 2"><g id="Camada_1-2" data-name="Camada 1"><g id="lL778L"><polygon class="cls-1" points="71.94 44.52 71.94 44.75 71.93 44.75 71.94 44.52"/><polygon class="cls-1" points="72.06 41.26 71.99 43.63 71.94 44.52 71.94 41.2 72.06 41.26"/><path class="cls-1" d="M75.27,43v.08a2,2,0,0,0-.19-.21Z"/><path class="cls-1" d="M71.93,44.75h0v0Zm0-3.55v3.32l0-.89.07-2.37Zm3.14,1.66a2,2,0,0,1,.19.21V43Z"/><path class="cls-1" d="M88.24,45.84c-1.21-1.7-2.45-3.41-3.65-5.06l-1.78-2.45-1.59-2.18-.48-.65c-.7-1-1.54-2.13-2.38-3.31l-1-1.47a7.46,7.46,0,0,0-1.19-1.35l-.64-.51-.14-.09-.48-.28-.07,0a7.23,7.23,0,0,0-3.14-.75h-.27c-5.44,0-11.06,0-16.73,0h-.2a7.29,7.29,0,0,0-3.16.76l-.14.08-.21.12-.17.1a7.3,7.3,0,0,0-2,1.95l-1,1.42c-.74,1-1.5,2.09-2.09,2.91l-.88,1.2c-.5.69-1,1.38-1.51,2.08l-1.83,2.53c-1.19,1.62-2.41,3.31-3.6,5a6.08,6.08,0,0,0-.44,6.77,5.78,5.78,0,0,0,5.73,3h.19a5.6,5.6,0,0,0,.85-.13l.16,0a6.42,6.42,0,0,0,2.94-1.87l0-.05.26-.32.22-.29,3-4.14V89.25c0,.37,0,.73,0,1.08A6.08,6.08,0,0,0,51.12,92l.07.2a6.34,6.34,0,0,0,1.54,2.44l.16.15a6.05,6.05,0,0,0,2.65,1.39l.63.1A6.36,6.36,0,0,0,58.94,96l.12,0a6.27,6.27,0,0,0,2.32-1.55A6.69,6.69,0,0,0,63,89.89c0-7.18,0-18.29,0-25.6h.09v25.6a6.69,6.69,0,0,0,1.69,4.58,6.22,6.22,0,0,0,2.14,1.44l.31.11a6.22,6.22,0,0,0,2.73.26l.63-.1a6.07,6.07,0,0,0,2.64-1.39l.16-.15A6.5,6.5,0,0,0,75,92a6.1,6.1,0,0,0,.26-1.64c0-.36,0-.72,0-1.09V48.79c1,1.32,1.91,2.64,2.87,4l.12.17.18.24c.07.08.14.18.2.24a1.58,1.58,0,0,0,.12.15,6.52,6.52,0,0,0,2.94,1.89l.18,0a4.71,4.71,0,0,0,.85.14h.18a4.61,4.61,0,0,0,.52,0,5.72,5.72,0,0,0,5.23-3.06A6.11,6.11,0,0,0,88.24,45.84Zm-2.57,5.1a2.39,2.39,0,0,1-2.52,1.28h-.1l-.34-.05h0a2.94,2.94,0,0,1-1.36-.89l0,0-.13-.15-.1-.14-.13-.18q-2.73-3.8-5.47-7.57l-1.63-2.11h-2V89.27c0,.32,0,.65,0,1a3.11,3.11,0,0,1-.11.71A3,3,0,0,1,71,92.2l0,0a2.62,2.62,0,0,1-1.18.61l-.28,0a2.8,2.8,0,0,1-1.17-.12h0a2.59,2.59,0,0,1-1-.63,3.2,3.2,0,0,1-.76-2.22c0-4.41,0-10.31,0-15.9V63.81c0-.16,0-.33,0-.49A2.47,2.47,0,0,0,64,60.85H62.11a2.45,2.45,0,0,0-2.53,2.48v.6c0,7.3,0,18.66,0,26a3.17,3.17,0,0,1-.73,2.18,2.61,2.61,0,0,1-1,.66l-.07,0a2.93,2.93,0,0,1-1.16.11l-.27,0a2.71,2.71,0,0,1-1.18-.6l0,0a3,3,0,0,1-.71-1.11l0-.07a3.18,3.18,0,0,1-.12-.77c0-.32,0-.65,0-1V41.05l-1.94,0s-1.53,2-1.68,2.16L50,44c-1.66,2.3-3.33,4.59-5,6.87l-.15.21-.13.15,0,0a2.92,2.92,0,0,1-1.33.86h0a1.7,1.7,0,0,1-.35.06H43a2.36,2.36,0,0,1-2.5-1.28,2.68,2.68,0,0,1,.24-3.11c1.18-1.66,2.39-3.33,3.57-4.95l1.84-2.53c.5-.7,1-1.38,1.51-2.08L48.51,37c.58-.79,1.35-1.85,2.09-2.91l1-1.43a3.73,3.73,0,0,1,1-1l.24-.15a3.9,3.9,0,0,1,1.65-.37h.11c5.68,0,11.31,0,16.75,0h.19a3.73,3.73,0,0,1,1.09.15,6.18,6.18,0,0,1,1.15.63,3.87,3.87,0,0,1,.67.76l1.06,1.48c.84,1.2,1.69,2.36,2.42,3.36l.46.64L80,40.35l1.78,2.46c1.2,1.64,2.43,3.34,3.62,5a3,3,0,0,1,.64,1.75A2.8,2.8,0,0,1,85.67,50.94Z"/><path class="cls-1" d="M27,96.13a3.64,3.64,0,0,1-3-1.56A3.46,3.46,0,0,1,22.1,96a3.66,3.66,0,0,1-4.7-3.22,8,8,0,0,1,0-.82V76.36h0A3.67,3.67,0,0,1,12,77.61a3.71,3.71,0,0,1-.77-5.16c1.25-1.77,2.54-3.55,3.79-5.27l1.72-2.37a3.74,3.74,0,0,1,3.2-1.5h1.35c1.79,0,3.64,0,5.47,0a1,1,0,0,0,1-.54c.89-1.28,1.81-2.55,2.71-3.79l1.13-1.55a3.76,3.76,0,0,1,3.47-1.7,3.58,3.58,0,0,1,2.95,2,3.62,3.62,0,0,1-.3,3.62c-1,1.47-2.06,2.93-3.08,4.34l-1.22,1.69c-.5.71-1,1.45-1.62,2.15a5,5,0,0,0-1.17,3.48c0,2.84,0,5.73,0,8.53,0,1.2,0,2.39,0,3.59v1.56c0,1.84,0,3.67,0,5.5a3.66,3.66,0,0,1-1.85,3.41A3.62,3.62,0,0,1,27,96.13ZM24.4,79.81a2,2,0,0,1,2,2V92.09a3.18,3.18,0,0,0,0,.47.6.6,0,0,0,.33.46.54.54,0,0,0,.51,0c.15-.08.31-.17.31-.74,0-1.83,0-3.67,0-5.51V85.19c0-1.2,0-2.4,0-3.6,0-2.79,0-5.67,0-8.49a8,8,0,0,1,1.89-5.48c.51-.61,1-1.27,1.47-2L32.18,64c1-1.39,2-2.83,3-4.26a.59.59,0,0,0,.07-.6.57.57,0,0,0-.47-.31c-.14,0-.36,0-.71.45L33,60.79c-.89,1.22-1.81,2.48-2.67,3.74a4.07,4.07,0,0,1-3.62,1.85c-1.79,0-3.63,0-5.4,0H19.93c-.56,0-.66.14-.73.23-.57.8-1.15,1.59-1.72,2.38-1.25,1.71-2.53,3.48-3.77,5.24a.65.65,0,0,0,0,.9c.32.23.63.14.92-.26.52-.69,1-1.38,1.52-2.08.3-.43.61-.85.92-1.28.12-.16.25-.3.39-.46s.14-.17.24-.28l.95-1.12h1.74V92c0,.18,0,.35,0,.48a.69.69,0,0,0,.28.52.62.62,0,0,0,.54.06c.24-.07.36-.34.37-.81V81.84a2,2,0,0,1,2-2Z"/><path class="cls-1" d="M63.07,24.68a10.44,10.44,0,0,1-7.3-2.92,10.56,10.56,0,0,1-3.23-7.47h0A10.51,10.51,0,1,1,63.3,24.68ZM56,14.22a7.19,7.19,0,0,0,2.17,5.06A7.07,7.07,0,1,0,56,14.22Z"/><path class="cls-1" d="M24,61.82A5.79,5.79,0,0,1,18.23,56,5.84,5.84,0,0,1,24,50.21h.07a5.66,5.66,0,0,1,4,1.66,5.8,5.8,0,0,1-4,10Zm0-8.55h0A2.75,2.75,0,0,0,22.1,58a2.73,2.73,0,0,0,4.65-2h0a2.75,2.75,0,0,0-.84-2A2.65,2.65,0,0,0,24.05,53.27Z"/></g><rect class="cls-2" width="100" height="100"/></g></g></svg>