<svg xmlns="http://www.w3.org/2000/svg" viewBox="0 0 32 32"><defs><style>.cls-1{fill:#4b4b4b;}.cls-2{fill:none;}</style></defs><title>Icon_32px_saida</title><g id="Camada_2" data-name="Camada 2"><g id="Camada_1-2" data-name="Camada 1"><g id="lL778L"><polygon class="cls-1" points="23.02 14.25 23.02 14.32 23.02 14.32 23.02 14.25"/><polygon class="cls-1" points="23.06 13.2 23.04 13.96 23.02 14.25 23.02 13.18 23.06 13.2"/><path class="cls-1" d="M24.09,13.76v0L24,13.71Z"/><path class="cls-1" d="M23,14.32h0v0Zm0-1.14v1.07L23,14l0-.76Zm1,.53.06.07v0Z"/><path class="cls-1" d="M28.24,14.67l-1.17-1.62-.57-.78-.51-.7-.15-.21c-.23-.31-.5-.68-.76-1.06l-.34-.47a2.25,2.25,0,0,0-.38-.43l-.2-.16-.05,0L24,9.12h0a2.27,2.27,0,0,0-1-.24h-.09c-1.73,0-3.53,0-5.35,0h-.06a2.38,2.38,0,0,0-1,.24l-.05,0-.07,0-.05,0a2.18,2.18,0,0,0-.63.62l-.32.45-.67.94-.28.38c-.16.22-.33.44-.49.67l-.58.8c-.38.52-.77,1.06-1.15,1.6A1.94,1.94,0,0,0,12,16.83a1.85,1.85,0,0,0,1.84,1h.06a1.26,1.26,0,0,0,.27,0h0a2.06,2.06,0,0,0,.94-.6l0,0,.08-.1.07-.09,1-1.33v13.3a2.35,2.35,0,0,0,.09.53.14.14,0,0,0,0,.06,2.15,2.15,0,0,0,.49.79l.05,0a2,2,0,0,0,.85.45l.2,0a1.87,1.87,0,0,0,.89-.09h0a1.84,1.84,0,0,0,.74-.5,2.12,2.12,0,0,0,.53-1.45V20.57h0v8.19a2.15,2.15,0,0,0,.54,1.47,2,2,0,0,0,.69.46l.1,0a2.09,2.09,0,0,0,.87.08l.2,0a2,2,0,0,0,.85-.45l0,0a2.14,2.14,0,0,0,.51-.86,2.27,2.27,0,0,0,.09-.52V15.61L25,16.89l0,.05.06.08.06.08,0,0a2.13,2.13,0,0,0,.94.61h.06a1.17,1.17,0,0,0,.27,0h.22a1.85,1.85,0,0,0,1.68-1A2,2,0,0,0,28.24,14.67Zm-.83,1.63a.74.74,0,0,1-.8.41h0l-.11,0h0A.94.94,0,0,1,26,16.4h0l0-.05,0-.05,0-.05-1.75-2.43-.52-.67H23V28.88a1.57,1.57,0,0,1,0,.23.92.92,0,0,1-.24.39h0a.82.82,0,0,1-.38.2h-.09a.9.9,0,0,1-.37,0h0a.85.85,0,0,1-.31-.21,1,1,0,0,1-.25-.7V20.42a.86.86,0,0,0,0-.16.79.79,0,0,0-.81-.79h-.6a.78.78,0,0,0-.81.79.38.38,0,0,0,0,.15v8.35a1,1,0,0,1-.24.7.72.72,0,0,1-.31.21h0a.92.92,0,0,1-.37,0H18a.91.91,0,0,1-.38-.19v0a1,1,0,0,1-.23-.35v0a.93.93,0,0,1,0-.24c0-.11,0-.21,0-.31V13.13h-.62l-.54.69-.2.28-1.59,2.2-.05.06a.1.1,0,0,1,0,0h0a1,1,0,0,1-.42.28h0l-.12,0h0a.75.75,0,0,1-.8-.41.85.85,0,0,1,.07-1l1.15-1.59.58-.81.49-.66.28-.4c.19-.25.43-.59.67-.93l.33-.46a1.29,1.29,0,0,1,.33-.33l.08,0a1.14,1.14,0,0,1,.52-.12h5.46a1.29,1.29,0,0,1,.35,0,2.46,2.46,0,0,1,.37.2,2.57,2.57,0,0,1,.21.24l.34.48L25,12l.15.21.51.69.57.79,1.16,1.61a1,1,0,0,1,.2.55A.83.83,0,0,1,27.41,16.3Z"/><path class="cls-1" d="M8.65,30.76a1.26,1.26,0,0,1-.51-.11,1.22,1.22,0,0,1-.45-.39,1.09,1.09,0,0,1-.62.45,1.16,1.16,0,0,1-1-.15,1.19,1.19,0,0,1-.51-.88,2.44,2.44,0,0,1,0-.26v-5h0a1.18,1.18,0,0,1-1.73.41,1.2,1.2,0,0,1-.24-1.66L4.8,21.5l.55-.76a1.18,1.18,0,0,1,1-.48h.44c.57,0,1.16,0,1.75,0a.32.32,0,0,0,.33-.17c.28-.41.58-.82.87-1.21l.36-.5a1.2,1.2,0,0,1,1.11-.54,1.12,1.12,0,0,1,.94.65,1.15,1.15,0,0,1-.09,1.16c-.32.47-.66.94-1,1.39l-.39.54c-.16.23-.33.46-.52.69a1.57,1.57,0,0,0-.37,1.11c0,.91,0,1.84,0,2.73v3.41a1.17,1.17,0,0,1-.59,1.09A1.18,1.18,0,0,1,8.65,30.76Zm-.84-5.22a.64.64,0,0,1,.64.64v3.29a.66.66,0,0,0,0,.15.17.17,0,0,0,.11.14.15.15,0,0,0,.16,0s.1-.06.1-.24V26.11c0-.89,0-1.81,0-2.72a2.55,2.55,0,0,1,.6-1.75c.17-.2.32-.41.48-.63l.39-.54,1-1.37a.19.19,0,0,0,0-.19.2.2,0,0,0-.15-.1s-.12,0-.23.14l-.36.5-.86,1.2a1.31,1.31,0,0,1-1.15.59H6.38c-.18,0-.21,0-.24.07-.18.26-.36.51-.55.76-.4.55-.81,1.12-1.2,1.68a.21.21,0,0,0,0,.29q.15.11.3-.09l.48-.66.3-.41.12-.15.08-.09.3-.35h.56v7.3a.22.22,0,0,0,.09.17.2.2,0,0,0,.17,0c.08,0,.12-.11.12-.26V26.19a.65.65,0,0,1,.65-.65Z"/><path class="cls-1" d="M20.18,7.9A3.3,3.3,0,0,1,17.85,7a3.38,3.38,0,0,1-1-2.39h0A3.37,3.37,0,1,1,20.25,7.9ZM17.91,4.55a2.32,2.32,0,0,0,.7,1.62A2.26,2.26,0,0,0,22.44,4.5a2.28,2.28,0,0,0-.69-1.59,2.27,2.27,0,0,0-3.84,1.64Z"/><path class="cls-1" d="M7.68,19.78a1.82,1.82,0,0,1-1.3-.54,1.85,1.85,0,0,1,1.29-3.17h0a1.86,1.86,0,0,1,1.84,1.85,1.86,1.86,0,0,1-1.85,1.86Zm0-2.73h0a.88.88,0,0,0-.62,1.5.9.9,0,0,0,.62.25.87.87,0,0,0,.87-.88h0a.86.86,0,0,0-.27-.62A.83.83,0,0,0,7.7,17.05Z"/></g><rect class="cls-2" width="32" height="32"/></g></g></svg>