<svg xmlns="http://www.w3.org/2000/svg" viewBox="0 0 30 30"><defs><style>.cls-1{fill:#4b4b4b;}.cls-2{fill:none;}</style></defs><title>Icon_30px_saida</title><g id="Camada_2" data-name="Camada 2"><g id="Camada_1-2" data-name="Camada 1"><g id="lL778L"><polygon class="cls-1" points="21.58 13.36 21.58 13.43 21.58 13.42 21.58 13.36"/><polygon class="cls-1" points="21.62 12.38 21.6 13.09 21.58 13.36 21.58 12.36 21.62 12.38"/><path class="cls-1" d="M22.58,12.9v0l-.06-.06Z"/><path class="cls-1" d="M21.58,13.42h0v0Zm0-1.06v1l0-.27,0-.71Zm.94.5.06.06v0Z"/><path class="cls-1" d="M26.47,13.75l-1.09-1.52-.54-.73-.47-.66-.15-.19-.71-1-.31-.44a2.4,2.4,0,0,0-.36-.41l-.19-.15,0,0-.14-.08h0a2.21,2.21,0,0,0-.94-.23H16.34a2.25,2.25,0,0,0-.95.23l0,0-.07,0,0,0a2.21,2.21,0,0,0-.59.59l-.3.42c-.22.32-.45.63-.63.87l-.26.36L13,11.5c-.19.25-.37.5-.55.76-.36.48-.73,1-1.08,1.49a1.82,1.82,0,0,0-.14,2A1.75,1.75,0,0,0,13,16.7H13l.26,0h0a2,2,0,0,0,.89-.56v0l.08-.09.07-.09c.29-.42.59-.83.89-1.24V26.78c0,.11,0,.21,0,.32a1.69,1.69,0,0,0,.08.5s0,0,0,.06a1.75,1.75,0,0,0,.46.73l0,.05a1.82,1.82,0,0,0,.79.41l.19,0a1.76,1.76,0,0,0,.83-.08h0a2,2,0,0,0,.69-.46,2,2,0,0,0,.5-1.36V19.29h0V27a2,2,0,0,0,.51,1.37,1.72,1.72,0,0,0,.64.43l.09,0a1.87,1.87,0,0,0,.82.07l.19,0a1.82,1.82,0,0,0,.79-.41l.05-.05a1.81,1.81,0,0,0,.48-.8,1.62,1.62,0,0,0,.08-.49V14.64l.86,1.19,0,.05a.22.22,0,0,0,.06.07l.06.08,0,0a2,2,0,0,0,.89.57h.05l.25,0H25a1.71,1.71,0,0,0,1.57-.92A1.82,1.82,0,0,0,26.47,13.75Zm-.77,1.53a.72.72,0,0,1-.75.39h-.14a1,1,0,0,1-.41-.27v0l0,0,0,0,0-.06c-.54-.76-1.09-1.51-1.64-2.27l-.49-.63h-.6V27.07a.73.73,0,0,1,0,.22,1,1,0,0,1-.23.37h0a.78.78,0,0,1-.35.18h-.09a1,1,0,0,1-.35,0h0a.77.77,0,0,1-.3-.19A1,1,0,0,1,20,27V19.14A.61.61,0,0,0,20,19a.73.73,0,0,0-.76-.74h-.57a.73.73,0,0,0-.76.74v.18c0,2.19,0,5.6,0,7.79a.94.94,0,0,1-.22.65.83.83,0,0,1-.3.2h0a1,1,0,0,1-.35,0h-.08a.78.78,0,0,1-.35-.18h0a.87.87,0,0,1-.22-.34v0a.59.59,0,0,1,0-.23V12.31H15.7l-.5.65-.19.26-1.49,2.06,0,.06,0,.05h0a1,1,0,0,1-.4.26h-.14a.72.72,0,0,1-.75-.39.79.79,0,0,1,.07-.93c.35-.5.72-1,1.07-1.49.19-.25.37-.5.55-.76l.46-.62.26-.37c.18-.24.41-.55.63-.87l.31-.43a1,1,0,0,1,.3-.31l.08,0a1.07,1.07,0,0,1,.49-.11h5.12a1,1,0,0,1,.32,0,1.84,1.84,0,0,1,.35.19,1.14,1.14,0,0,1,.2.23c.11.15.21.3.32.44l.72,1,.14.19.48.65c.17.25.35.5.53.74l1.09,1.51a1,1,0,0,1,.19.52A.81.81,0,0,1,25.7,15.28Z"/><path class="cls-1" d="M8.11,28.84a1.13,1.13,0,0,1-.48-.11,1.05,1.05,0,0,1-.42-.36,1,1,0,0,1-.58.42,1.13,1.13,0,0,1-.93-.14,1.1,1.1,0,0,1-.48-.83,2,2,0,0,1,0-.24V22.91h0a1.1,1.1,0,1,1-1.85-1.18L4.5,20.15,5,19.44A1.12,1.12,0,0,1,6,19H8a.33.33,0,0,0,.31-.16c.27-.39.55-.77.82-1.14l.34-.47a1.11,1.11,0,0,1,1-.51,1.07,1.07,0,0,1,.88.62,1.05,1.05,0,0,1-.09,1.08c-.3.44-.61.88-.92,1.3l-.37.51c-.15.22-.31.44-.48.65a1.5,1.5,0,0,0-.36,1c0,.85,0,1.72,0,2.56,0,.36,0,.72,0,1.08V26c0,.55,0,1.1,0,1.64a1.1,1.1,0,0,1-1.09,1.17Zm-.79-4.9a.61.61,0,0,1,.61.61v3.22a.18.18,0,0,0,.1.13.13.13,0,0,0,.15,0c.05,0,.1,0,.1-.22,0-.55,0-1.1,0-1.65v-4.1a2.45,2.45,0,0,1,.56-1.65,6.84,6.84,0,0,0,.45-.58l.37-.51c.3-.42.61-.85.9-1.28a.15.15,0,0,0,0-.18.14.14,0,0,0-.14-.09s-.11,0-.21.13l-.34.47c-.27.36-.54.74-.8,1.12A1.22,1.22,0,0,1,8,19.92c-.53,0-1.08,0-1.62,0H6c-.17,0-.2,0-.22.07-.17.24-.34.48-.52.71L4.11,22.26a.21.21,0,0,0,0,.28c.09.06.19,0,.28-.08l.45-.63.28-.38a1.34,1.34,0,0,1,.11-.14l.07-.08.29-.34h.52v6.84a.24.24,0,0,0,.08.16.2.2,0,0,0,.17,0c.07,0,.11-.1.11-.24V24.55a.62.62,0,0,1,.6-.61Z"/><path class="cls-1" d="M18.92,7.41a3.14,3.14,0,0,1-2.19-.88,3.2,3.2,0,0,1-1-2.24h0A3.16,3.16,0,1,1,19,7.4ZM16.79,4.27a2.13,2.13,0,0,0,.66,1.51A2.06,2.06,0,0,0,19,6.37,2.11,2.11,0,0,0,21,4.22a2.08,2.08,0,0,0-.64-1.49,2.14,2.14,0,0,0-1.52-.59,2.1,2.1,0,0,0-2.08,2.13Z"/><path class="cls-1" d="M7.2,18.55a1.74,1.74,0,0,1-1.73-1.74,1.76,1.76,0,0,1,1.72-1.75h0a1.75,1.75,0,0,1,1.22,3,1.77,1.77,0,0,1-1.23.52Zm0-2.57h0a.82.82,0,0,0-.82.83.78.78,0,0,0,.24.58.83.83,0,0,0,.58.24.81.81,0,0,0,.58-.25A.78.78,0,0,0,8,16.8H8a.83.83,0,0,0-.25-.59A.78.78,0,0,0,7.22,16Z"/></g><rect class="cls-2" width="30" height="30"/></g></g></svg>