<svg xmlns="http://www.w3.org/2000/svg" viewBox="0 0 36 36"><defs><style>.cls-1,.cls-3{fill:#488ff9;}.cls-1,.cls-2{fill-rule:evenodd;}.cls-2,.cls-4{fill:none;}</style></defs><title>Icon_36px_ag-aprovacao</title><g id="Camada_2" data-name="Camada 2"><g id="Camada_1-2" data-name="Camada 1"><polygon class="cls-1" points="18.49 20.99 12.14 14.55 9.93 16.78 18.48 25.45 34.75 9.06 34.75 9.06 32.55 6.83 18.49 20.99"/><path class="cls-2" d="M28.86,17.51l0,10.82a2.4,2.4,0,0,1-2.4,2.39l-20.63,0a2.4,2.4,0,0,1-2.39-2.4l0-20.62a2.4,2.4,0,0,1,2.4-2.39l20.63,0a2.4,2.4,0,0,1,2.39,2.4v.35l1.9-1.9a4.55,4.55,0,0,0-4.28-3l-20.64,0A4.56,4.56,0,0,0,1.28,7.66l0,20.63A4.56,4.56,0,0,0,5.8,32.86l20.64,0A4.56,4.56,0,0,0,31,28.34l0-13Z"/><path class="cls-3" d="M28.86,17.51l0,10.82a2.4,2.4,0,0,1-2.4,2.39l-20.63,0a2.4,2.4,0,0,1-2.39-2.4l0-20.62a2.4,2.4,0,0,1,2.4-2.39l20.63,0a2.4,2.4,0,0,1,2.39,2.4v.35l1.9-1.9a4.55,4.55,0,0,0-4.28-3l-20.64,0A4.56,4.56,0,0,0,1.28,7.66l0,20.63A4.56,4.56,0,0,0,5.8,32.86l20.64,0A4.56,4.56,0,0,0,31,28.34l0-13Z"/><rect class="cls-4" width="36" height="36"/></g></g></svg>