<svg xmlns="http://www.w3.org/2000/svg" viewBox="0 0 48 48"><defs><style>.cls-1,.cls-3{fill:#488ff9;}.cls-1,.cls-2{fill-rule:evenodd;}.cls-2,.cls-4{fill:none;}</style></defs><title>Icon_48px_ag-aprovacao</title><g id="Camada_2" data-name="Camada 2"><g id="Camada_1-2" data-name="Camada 1"><polygon class="cls-1" points="24.66 27.98 16.19 19.41 13.24 22.37 24.65 33.93 46.34 12.08 46.34 12.08 43.4 9.11 24.66 27.98"/><path class="cls-2" d="M38.47,23.34l0,14.44A3.18,3.18,0,0,1,35.26,41l-27.52,0a3.19,3.19,0,0,1-3.18-3.19l0-27.51A3.19,3.19,0,0,1,7.8,7l27.51,0a3.18,3.18,0,0,1,3.18,3.19v.47L41,8.21a6.09,6.09,0,0,0-5.72-4L7.8,4.14a6.1,6.1,0,0,0-6.1,6.08l0,27.5a6.09,6.09,0,0,0,6.08,6.09l27.51,0a6.1,6.1,0,0,0,6.1-6.08l0-17.33Z"/><path class="cls-3" d="M38.47,23.34l0,14.44A3.18,3.18,0,0,1,35.26,41l-27.52,0a3.19,3.19,0,0,1-3.18-3.19l0-27.51A3.19,3.19,0,0,1,7.8,7l27.51,0a3.18,3.18,0,0,1,3.18,3.19v.47L41,8.21a6.09,6.09,0,0,0-5.72-4L7.8,4.14a6.1,6.1,0,0,0-6.1,6.08l0,27.5a6.09,6.09,0,0,0,6.08,6.09l27.51,0a6.1,6.1,0,0,0,6.1-6.08l0-17.33Z"/><rect class="cls-4" width="48" height="48"/></g></g></svg>