<svg xmlns="http://www.w3.org/2000/svg" viewBox="0 0 24 24"><defs><style>.cls-1,.cls-3{fill:#488ff9;}.cls-1,.cls-2{fill-rule:evenodd;}.cls-2,.cls-4{fill:none;}</style></defs><title>Icon_24px_ag-aprovacao</title><g id="Camada_2" data-name="Camada 2"><g id="Camada_1-2" data-name="Camada 1"><polygon class="cls-1" points="12.33 13.99 8.1 9.7 6.62 11.19 12.32 16.96 23.17 6.04 23.17 6.04 21.7 4.55 12.33 13.99"/><path class="cls-2" d="M19.24,11.67v7.22a1.6,1.6,0,0,1-1.6,1.59l-13.76,0a1.6,1.6,0,0,1-1.59-1.6l0-13.75A1.6,1.6,0,0,1,3.9,3.52l13.75,0a1.6,1.6,0,0,1,1.6,1.6v.23l1.27-1.26a3.05,3.05,0,0,0-2.86-2L3.9,2.07a3,3,0,0,0-3,3l0,13.75a3.05,3.05,0,0,0,3,3.05l13.76,0a3,3,0,0,0,3-3l0-8.67Z"/><path class="cls-3" d="M19.24,11.67v7.22a1.6,1.6,0,0,1-1.6,1.59l-13.76,0a1.6,1.6,0,0,1-1.59-1.6l0-13.75A1.6,1.6,0,0,1,3.9,3.52l13.75,0a1.6,1.6,0,0,1,1.6,1.6v.23l1.27-1.26a3.05,3.05,0,0,0-2.86-2L3.9,2.07a3,3,0,0,0-3,3l0,13.75a3.05,3.05,0,0,0,3,3.05l13.76,0a3,3,0,0,0,3-3l0-8.67Z"/><rect class="cls-4" width="24" height="24"/></g></g></svg>