<svg xmlns="http://www.w3.org/2000/svg" viewBox="0 0 30 30"><defs><style>.cls-1{fill:#4b4b4b;}.cls-2{fill:none;}</style></defs><title>Icon_30px_evento</title><g id="Camada_2" data-name="Camada 2"><g id="Camada_1-2" data-name="Camada 1"><path class="cls-1" d="M24.55,4.18H23.06v-1a.93.93,0,0,0-.72-.92.9.9,0,0,0-1.09.88v1H16V3.24a.91.91,0,1,0-1.82,0v1H8.93v-1a.93.93,0,0,0-.71-.92.9.9,0,0,0-1.1.88v1H5.45A3.77,3.77,0,0,0,1.69,7.94V24a3.77,3.77,0,0,0,3.76,3.76h19.1A3.77,3.77,0,0,0,28.31,24v-16A3.77,3.77,0,0,0,24.55,4.18ZM26.5,23.92a2,2,0,0,1-2,2h-19a2,2,0,0,1-2-2V12.33h23Zm0-13.4H3.5V8a2,2,0,0,1,2-2H7.12V7.44a.93.93,0,0,0,.72.92.91.91,0,0,0,1.09-.89V6h5.25V7.47a.92.92,0,0,0,.72.91A.91.91,0,0,0,16,7.5V6h5.25V7.44a.93.93,0,0,0,.72.92.91.91,0,0,0,1.09-.89V6h1.45a2,2,0,0,1,2,2Z"/><path class="cls-1" d="M8.9,14H6.31a.8.8,0,0,0-.79.8v2.57a.8.8,0,0,0,.79.8H8.89a.8.8,0,0,0,.8-.8V14.82A.78.78,0,0,0,8.9,14Z"/><rect class="cls-2" width="30" height="30"/></g></g></svg>