<svg xmlns="http://www.w3.org/2000/svg" viewBox="0 0 100 100"><defs><style>.cls-1{fill:#4b4b4b;}.cls-2{fill:none;}</style></defs><title>Icon_100px_evento</title><g id="Camada_2" data-name="Camada 2"><g id="Camada_1-2" data-name="Camada 1"><path class="cls-1" d="M81.85,13.93h-5V10.7a3.08,3.08,0,0,0-2.39-3.06,3,3,0,0,0-3.65,2.94v3.35H53.32V10.79a3.08,3.08,0,0,0-2.39-3.06,3,3,0,0,0-3.65,2.94v3.26H29.77V10.7a3.08,3.08,0,0,0-2.38-3.06,3,3,0,0,0-3.66,2.94v3.35H18.15A12.58,12.58,0,0,0,5.62,26.47V79.89A12.57,12.57,0,0,0,18.15,92.43h63.7A12.57,12.57,0,0,0,94.38,79.89V26.47A12.57,12.57,0,0,0,81.85,13.93Zm6.49,65.82a6.64,6.64,0,0,1-6.64,6.64H18.3a6.64,6.64,0,0,1-6.64-6.64V41.11H88.34Zm0-44.68H11.66V26.62A6.64,6.64,0,0,1,18.3,20h5.43V24.8a3.09,3.09,0,0,0,2.39,3.06,3,3,0,0,0,3.65-2.95V20H47.28v4.92A3.09,3.09,0,0,0,49.67,28,3,3,0,0,0,53.32,25V20H70.83V24.8a3.09,3.09,0,0,0,2.39,3.06,3,3,0,0,0,3.65-2.95V20H81.7a6.64,6.64,0,0,1,6.64,6.65Z"/><path class="cls-1" d="M29.68,46.81H21.05a2.64,2.64,0,0,0-2.65,2.64v8.6a2.64,2.64,0,0,0,2.65,2.64h8.59a2.65,2.65,0,0,0,2.65-2.64V49.41a2.6,2.6,0,0,0-2.61-2.6Z"/><rect class="cls-2" width="100" height="100"/></g></g></svg>