<svg xmlns="http://www.w3.org/2000/svg" viewBox="0 0 32 32"><defs><style>.cls-1{fill:#4b4b4b;}.cls-2{fill:none;}</style></defs><title>Icon_32px_evento</title><g id="Camada_2" data-name="Camada 2"><g id="Camada_1-2" data-name="Camada 1"><path class="cls-1" d="M26.19,4.46H24.6v-1a1,1,0,0,0-.77-1,1,1,0,0,0-1.16,1V4.46H17.06v-1a1,1,0,0,0-.76-1,1,1,0,0,0-1.17.94v1H9.53v-1a1,1,0,0,0-.77-1,1,1,0,0,0-1.16,1V4.46H5.81a4,4,0,0,0-4,4v17.1a4,4,0,0,0,4,4H26.19a4,4,0,0,0,4-4V8.47A4,4,0,0,0,26.19,4.46Zm2.08,21.06a2.12,2.12,0,0,1-2.13,2.12H5.86a2.12,2.12,0,0,1-2.13-2.12V13.15H28.27Zm0-14.3H3.73V8.52A2.13,2.13,0,0,1,5.86,6.39H7.6V7.93a1,1,0,0,0,.76,1A1,1,0,0,0,9.53,8V6.39h5.6V8a1,1,0,0,0,.76,1A1,1,0,0,0,17.06,8V6.39h5.61V7.93a1,1,0,0,0,.76,1A1,1,0,0,0,24.6,8V6.39h1.54a2.13,2.13,0,0,1,2.13,2.13Z"/><path class="cls-1" d="M9.5,15H6.73a.85.85,0,0,0-.84.85v2.74a.85.85,0,0,0,.84.85H9.48a.85.85,0,0,0,.85-.85V15.81A.83.83,0,0,0,9.5,15Z"/><rect class="cls-2" width="32" height="32"/></g></g></svg>