<svg xmlns="http://www.w3.org/2000/svg" viewBox="0 0 48 48"><defs><style>.cls-1{fill:#4b4b4b;}.cls-2{fill:none;}</style></defs><title>Icon_48px_saida</title><g id="Camada_2" data-name="Camada 2"><g id="Camada_1-2" data-name="Camada 1"><g id="lL778L"><polygon class="cls-1" points="34.53 21.37 34.53 21.48 34.53 21.48 34.53 21.37"/><polygon class="cls-1" points="34.59 19.8 34.55 20.94 34.53 21.37 34.53 19.78 34.59 19.8"/><path class="cls-1" d="M36.13,20.64v0l-.09-.1Z"/><path class="cls-1" d="M34.53,21.48h0v0Zm0-1.7v1.59l0-.43,0-1.14Zm1.51.79.09.1v0Z"/><path class="cls-1" d="M42.35,22c-.58-.81-1.17-1.63-1.75-2.42-.28-.4-.57-.79-.85-1.18l-.76-1L38.76,17c-.34-.47-.74-1-1.14-1.59l-.51-.71a3.52,3.52,0,0,0-.57-.64l-.31-.24-.06,0-.23-.13,0,0a3.6,3.6,0,0,0-1.5-.36h-.13c-2.61,0-5.31,0-8,0h-.1a3.54,3.54,0,0,0-1.51.37l-.07,0-.11.06-.08.05a3.61,3.61,0,0,0-.94.93l-.49.69c-.35.5-.71,1-1,1.39l-.42.58-.73,1c-.29.4-.58.81-.88,1.21L18.19,22A2.93,2.93,0,0,0,18,25.25a2.78,2.78,0,0,0,2.76,1.46h.09a2.7,2.7,0,0,0,.41-.07l.07,0a3.08,3.08,0,0,0,1.42-.9l0,0,.12-.15L23,25.4l1.43-2V43.36a3,3,0,0,0,.13.8l0,.1a3.11,3.11,0,0,0,.74,1.17l.08.07a3,3,0,0,0,1.27.67l.3,0a3.09,3.09,0,0,0,1.33-.14l.06,0a2.89,2.89,0,0,0,1.11-.74,3.2,3.2,0,0,0,.79-2.17V30.86h0V43.15a3.17,3.17,0,0,0,.81,2.19,3.1,3.1,0,0,0,1,.7l.15.05a3.07,3.07,0,0,0,1.32.13l.3-.06a2.89,2.89,0,0,0,1.26-.66l.08-.07a3.05,3.05,0,0,0,.9-2.07V23.42l1.38,1.91,0,.08.09.11c0,.05.07.09.09.12a.23.23,0,0,0,.07.07,3,3,0,0,0,1.41.91l.08,0a2.7,2.7,0,0,0,.41.07h.34a2.75,2.75,0,0,0,2.51-1.47A2.93,2.93,0,0,0,42.35,22Zm-1.23,2.45a1.15,1.15,0,0,1-1.21.61h0l-.16,0h0A1.41,1.41,0,0,1,39,24.6l0,0L39,24.51l-.05-.07-.06-.09-2.63-3.63c-.06-.1-.78-1-.78-1h-.95V43.32a1.74,1.74,0,0,1,0,.34,1.54,1.54,0,0,1-.36.59l0,0a1.29,1.29,0,0,1-.57.29l-.13,0a1.29,1.29,0,0,1-.56-.06h0a1.42,1.42,0,0,1-.48-.31,1.58,1.58,0,0,1-.36-1.06V30.39a1.18,1.18,0,0,0-1.22-1.18h-.07a2.28,2.28,0,0,0-.37,0c-.14,0-.28,0-.39,0h-.08A1.17,1.17,0,0,0,28.6,30.4V43.15a1.53,1.53,0,0,1-.35,1.05,1.21,1.21,0,0,1-.47.31h0a1.29,1.29,0,0,1-.56.06l-.13,0a1.24,1.24,0,0,1-.57-.29l0,0a1.34,1.34,0,0,1-.34-.53v0a2.38,2.38,0,0,1-.06-.37V19.7l-.93,0-.8,1-.31.42-2.37,3.29-.08.1-.06.07v0a1.44,1.44,0,0,1-.65.41h0a.43.43,0,0,1-.17,0h-.05a1.13,1.13,0,0,1-1.2-.61A1.29,1.29,0,0,1,19.54,23c.56-.8,1.14-1.6,1.71-2.38l.88-1.21c.24-.34.48-.67.73-1l.43-.59,1-1.4.49-.68a1.8,1.8,0,0,1,.49-.5l.12-.07a1.88,1.88,0,0,1,.79-.18h.05c2.73,0,5.43,0,8,0h.09a1.74,1.74,0,0,1,.53.07,3.26,3.26,0,0,1,.55.3,2,2,0,0,1,.32.37l.51.71c.4.57.81,1.13,1.16,1.61l.22.31.76,1c.28.39.57.78.85,1.18.58.79,1.17,1.6,1.74,2.41a1.41,1.41,0,0,1,.31.84A1.27,1.27,0,0,1,41.12,24.45Z"/><path class="cls-1" d="M13,46.14a1.69,1.69,0,0,1-.76-.17,1.73,1.73,0,0,1-.68-.58,1.63,1.63,0,0,1-.92.68,1.81,1.81,0,0,1-1.49-.23,1.75,1.75,0,0,1-.77-1.32c0-.14,0-.28,0-.39V36.65h0a1.75,1.75,0,1,1-2.95-1.87c.6-.85,1.22-1.71,1.82-2.53L8,31.11a1.76,1.76,0,0,1,1.53-.72h.65c.86,0,1.75,0,2.62,0a.51.51,0,0,0,.5-.26c.43-.62.88-1.23,1.31-1.82l.54-.75a1.8,1.8,0,0,1,1.66-.82,1.72,1.72,0,0,1,1.42,1,1.75,1.75,0,0,1-.14,1.74c-.48.7-1,1.4-1.48,2.08l-.59.81a12.13,12.13,0,0,1-.78,1,2.47,2.47,0,0,0-.56,1.67c0,1.37,0,2.76,0,4.1,0,.57,0,1.15,0,1.72v3.39a1.76,1.76,0,0,1-.89,1.64A1.68,1.68,0,0,1,13,46.14Zm-1.26-7.83a1,1,0,0,1,1,1V44.2a1.55,1.55,0,0,0,0,.23.29.29,0,0,0,.16.22.28.28,0,0,0,.25,0c.07,0,.14-.08.14-.35v-3.4c0-.58,0-1.15,0-1.73,0-1.33,0-2.72,0-4.07a3.83,3.83,0,0,1,.91-2.63c.25-.3.47-.61.71-.94l.59-.82c.48-.67,1-1.36,1.45-2.05a.26.26,0,0,0,0-.29.24.24,0,0,0-.22-.14c-.07,0-.18,0-.34.21l-.55.75c-.42.59-.86,1.19-1.28,1.79a1.93,1.93,0,0,1-1.73.89H9.57c-.27,0-.32.07-.35.11l-.83,1.14c-.6.82-1.22,1.67-1.81,2.51a.32.32,0,0,0,0,.44c.15.11.3.06.44-.13l.72-1,.45-.62.18-.22L8.52,34,9,33.43h.83v11a.34.34,0,0,0,.13.25.33.33,0,0,0,.26,0c.12,0,.18-.16.18-.38v-5a1,1,0,0,1,1-1Z"/><path class="cls-1" d="M30.27,11.85a5.05,5.05,0,0,1-5.05-5h0a5,5,0,1,1,5.16,5Zm-3.4-5a3.45,3.45,0,0,0,1,2.42,3.33,3.33,0,0,0,2.44.94,3.38,3.38,0,0,0,3.3-3.43,3.38,3.38,0,0,0-3.46-3.34,3.37,3.37,0,0,0-3.32,3.41Z"/><path class="cls-1" d="M11.53,29.67A2.77,2.77,0,0,1,8.75,26.9a2.8,2.8,0,0,1,2.76-2.8h0a2.73,2.73,0,0,1,1.92.8,2.82,2.82,0,0,1,.84,2,2.76,2.76,0,0,1-.81,2,2.73,2.73,0,0,1-2,.82Zm0-4.1h0a1.31,1.31,0,0,0-1.31,1.32,1.28,1.28,0,0,0,.39.93,1.26,1.26,0,0,0,.92.38,1.31,1.31,0,0,0,.93-.39,1.29,1.29,0,0,0,.38-.92h0a1.37,1.37,0,0,0-.4-.95A1.28,1.28,0,0,0,11.54,25.57Z"/></g><rect class="cls-2" width="48" height="48"/></g></g></svg>