<svg xmlns="http://www.w3.org/2000/svg" viewBox="0 0 24 24"><defs><style>.cls-1{fill:#4b4b4b;}.cls-2{fill:none;}</style></defs><title>Icon_24px_saida</title><g id="Camada_2" data-name="Camada 2"><g id="Camada_1-2" data-name="Camada 1"><g id="lL778L"><polygon class="cls-1" points="17.27 10.69 17.27 10.74 17.26 10.74 17.27 10.69"/><polygon class="cls-1" points="17.29 9.9 17.28 10.47 17.27 10.69 17.27 9.89 17.29 9.9"/><path class="cls-1" d="M18.07,10.32v0l0-.05Z"/><path class="cls-1" d="M17.26,10.74h0v0Zm0-.85v0Zm.75.4,0,.05v0Z"/><path class="cls-1" d="M21.18,11c-.29-.41-.59-.82-.88-1.21l-.43-.59c-.12-.18-.25-.35-.38-.52l-.11-.16-.57-.8c-.09-.11-.17-.23-.25-.35a2.26,2.26,0,0,0-.29-.32l-.15-.12,0,0L18,6.84h0a1.8,1.8,0,0,0-.75-.18H13.07a1.89,1.89,0,0,0-.76.18l0,0,0,0,0,0a1.74,1.74,0,0,0-.48.46l-.24.34-.5.7-.21.29-.36.5c-.15.2-.3.4-.44.61L9.09,11A1.47,1.47,0,0,0,9,12.63a1.38,1.38,0,0,0,1.37.73h.05a.64.64,0,0,0,.2,0h0a1.54,1.54,0,0,0,.71-.45h0l.06-.08.05-.07.72-1v9.71a2.26,2.26,0,0,0,0,.26,1.34,1.34,0,0,0,.06.4.17.17,0,0,0,0,.05,1.38,1.38,0,0,0,.37.58l0,0a1.4,1.4,0,0,0,.64.33l.15,0a1.65,1.65,0,0,0,.67-.07h0a1.48,1.48,0,0,0,.56-.37,1.59,1.59,0,0,0,.4-1.09V15.43h0v6.14a1.61,1.61,0,0,0,.41,1.1,1.5,1.5,0,0,0,.51.35l.08,0a1.74,1.74,0,0,0,.65.06l.15,0a1.4,1.4,0,0,0,.64-.33l0,0a1.58,1.58,0,0,0,.38-.64,1.27,1.27,0,0,0,.06-.39,2.26,2.26,0,0,0,0-.26V11.71l.69.95,0,.05,0,0s0,.05.05.06l0,0a1.6,1.6,0,0,0,.7.45h.05a.64.64,0,0,0,.2,0H20a1.37,1.37,0,0,0,1.25-.73A1.47,1.47,0,0,0,21.18,11Zm-.62,1.23a.56.56,0,0,1-.6.3h-.11a.8.8,0,0,1-.33-.22h0l0,0,0,0,0,0-1.32-1.82s-.39-.51-.39-.51h-.48V21.66a.47.47,0,0,1,0,.17.65.65,0,0,1-.18.3h0a.61.61,0,0,1-.29.14h-.06a.68.68,0,0,1-.29,0h0a.65.65,0,0,1-.24-.15.78.78,0,0,1-.18-.54V15.2a.6.6,0,0,0-.61-.6h-.45a.59.59,0,0,0-.61.6v6.37a.8.8,0,0,1-.17.53.78.78,0,0,1-.24.16h0a.64.64,0,0,1-.28,0h-.06a.57.57,0,0,1-.28-.14h0a.65.65,0,0,1-.17-.27v0a.57.57,0,0,1,0-.18V9.85h-.47s-.37.47-.4.52l-.15.21-1.19,1.65,0,0,0,0h0a.69.69,0,0,1-.32.21h-.11a.56.56,0,0,1-.6-.3.65.65,0,0,1,.06-.75c.28-.4.57-.8.86-1.19l.44-.61.36-.49.21-.3c.14-.19.33-.44.5-.7.09-.11.17-.23.25-.34a1,1,0,0,1,.25-.25l0,0a.82.82,0,0,1,.4-.09h4.09a1,1,0,0,1,.26,0,1.62,1.62,0,0,1,.28.15,1,1,0,0,1,.16.19l.25.35.58.81.12.15c.12.18.25.35.37.52l.43.59c.29.4.59.81.87,1.21a.66.66,0,0,1,.06.75Z"/><path class="cls-1" d="M6.48,23.07A1,1,0,0,1,6.11,23a.88.88,0,0,1-.34-.29A.8.8,0,0,1,5.3,23a.84.84,0,0,1-.74-.11.87.87,0,0,1-.38-.66,1.41,1.41,0,0,1,0-.2V18.33h0a.88.88,0,1,1-1.48-.94c.3-.43.61-.85.91-1.27L4,15.55a1,1,0,0,1,.77-.36H6.42a.26.26,0,0,0,.25-.13c.21-.31.43-.62.65-.91l.27-.37a.89.89,0,0,1,.83-.41.86.86,0,0,1,.71.49.88.88,0,0,1-.07.87c-.24.35-.5.7-.74,1L8,16.19c-.13.17-.25.34-.39.51a1.16,1.16,0,0,0-.28.84v3.28q0,.66,0,1.32a.87.87,0,0,1-.45.82A.92.92,0,0,1,6.48,23.07Zm-.62-3.92a.49.49,0,0,1,.48.49v2.58a.13.13,0,0,0,.09.1.1.1,0,0,0,.12,0s.07,0,.07-.18V19.58c0-.67,0-1.36,0-2a1.91,1.91,0,0,1,.46-1.31c.12-.15.23-.3.35-.47l.29-.41c.25-.34.5-.68.73-1a.15.15,0,0,0,0-.14.16.16,0,0,0-.12-.07s-.08,0-.17.11l-.27.37-.64.9a1,1,0,0,1-.87.44H4.78c-.13,0-.16,0-.17.06l-.42.57-.9,1.25a.16.16,0,0,0,0,.22c.08,0,.15,0,.22-.06l.37-.5c.07-.1.14-.21.22-.31l.09-.11L4.26,17l.23-.27h.42v5.36a.41.41,0,0,0,0,.12.16.16,0,0,0,.06.12.15.15,0,0,0,.13,0c.06,0,.09-.09.09-.2V19.64a.48.48,0,0,1,.48-.48Z"/><path class="cls-1" d="M15.14,5.92a2.51,2.51,0,0,1-2.53-2.49h0a2.52,2.52,0,1,1,2.58,2.49Zm-1.7-2.51a1.7,1.7,0,1,0,1.65-1.7,1.67,1.67,0,0,0-1.65,1.7Z"/><path class="cls-1" d="M5.76,14.84a1.36,1.36,0,0,1-1-.41,1.34,1.34,0,0,1-.41-1,1.39,1.39,0,0,1,1.38-1.4h0a1.39,1.39,0,0,1,1,2.37,1.4,1.4,0,0,1-1,.42Zm0-2.05h0a.65.65,0,0,0-.65.66.66.66,0,0,0,.19.46.64.64,0,0,0,.47.19.66.66,0,0,0,.46-.19.68.68,0,0,0,.19-.47h0a.67.67,0,0,0-.2-.47A.63.63,0,0,0,5.77,12.79Z"/></g><rect class="cls-2" width="24" height="24"/></g></g></svg>