<svg xmlns="http://www.w3.org/2000/svg" viewBox="0 0 36 36"><defs><style>.cls-1{fill:#4b4b4b;}.cls-2{fill:none;}</style></defs><title>Icon_36px_saida</title><g id="Camada_2" data-name="Camada 2"><g id="Camada_1-2" data-name="Camada 1"><g id="lL778L"><polygon class="cls-1" points="25.9 16.03 25.9 16.11 25.9 16.11 25.9 16.03"/><polygon class="cls-1" points="25.94 14.85 25.91 15.71 25.9 16.03 25.9 14.83 25.94 14.85"/><path class="cls-1" d="M27.1,15.48v0L27,15.43Z"/><path class="cls-1" d="M25.9,16.11h0v0Zm0-1.28V16l0-.32,0-.86Zm1.13.6.07.07v0Z"/><path class="cls-1" d="M31.76,16.5c-.43-.61-.88-1.22-1.31-1.82l-.64-.88L29.24,13l-.17-.23-.86-1.19-.37-.53a3,3,0,0,0-.43-.49l-.23-.18-.06,0-.17-.1,0,0A2.72,2.72,0,0,0,25.8,10H19.6a2.65,2.65,0,0,0-1.13.27l0,0-.08,0-.06,0a2.49,2.49,0,0,0-.71.7l-.36.51-.76,1-.31.43-.55.75c-.21.3-.43.6-.66.91L13.64,16.5a2.2,2.2,0,0,0-.16,2.44A2.09,2.09,0,0,0,15.55,20h.06a1.54,1.54,0,0,0,.31-.05H16A2.33,2.33,0,0,0,17,19.29h0l.1-.12.08-.11,1.07-1.49V32.13c0,.13,0,.26,0,.39a2.35,2.35,0,0,0,.09.6l0,.07a2.35,2.35,0,0,0,.55.88l.06,0a2.08,2.08,0,0,0,.95.5l.23,0a2.23,2.23,0,0,0,1-.1h0A2.34,2.34,0,0,0,22.1,34a2.41,2.41,0,0,0,.59-1.63V23.14h0v3.5c0,2,0,4.13,0,5.72A2.43,2.43,0,0,0,23.32,34a2.49,2.49,0,0,0,.77.52l.11,0a2.34,2.34,0,0,0,1,.09l.23,0a2.16,2.16,0,0,0,.95-.49l.05-.06a2.2,2.2,0,0,0,.58-1,2.35,2.35,0,0,0,.1-.59v-15l1,1.44,0,.06.06.08.08.09a.1.1,0,0,0,0,.05,2.21,2.21,0,0,0,1.06.68l.06,0a1.67,1.67,0,0,0,.31.05H30a2,2,0,0,0,1.88-1.1A2.18,2.18,0,0,0,31.76,16.5Zm-.92,1.84a.85.85,0,0,1-.91.46h0l-.12,0h0a1.12,1.12,0,0,1-.49-.33h0l-.05-.06,0-.05,0-.06-2-2.73-.59-.76h-.71V32.49a1.09,1.09,0,0,1,0,.26,1.05,1.05,0,0,1-.27.44h0a1,1,0,0,1-.43.22H25a1,1,0,0,1-.42,0h0a.93.93,0,0,1-.35-.23,1.16,1.16,0,0,1-.28-.8c0-1.59,0-3.71,0-5.72V22.79a.89.89,0,0,0-.92-.88h-.68a.88.88,0,0,0-.91.89v9.56a1.16,1.16,0,0,1-.26.79,1,1,0,0,1-.36.23h0a1,1,0,0,1-.42,0h-.1a.93.93,0,0,1-.42-.21l0,0a1,1,0,0,1-.25-.4v0a.8.8,0,0,1,0-.27c0-.12,0-.24,0-.35V14.78l-.7,0-.6.78-.23.31c-.6.83-1.2,1.65-1.78,2.47l-.06.08,0,.05h0a1.13,1.13,0,0,1-.49.32h0l-.12,0h0a.87.87,0,0,1-.91-.46,1,1,0,0,1,.09-1.12c.43-.6.86-1.2,1.29-1.78l.66-.92.54-.74.32-.44.76-1.05.36-.52A1.62,1.62,0,0,1,19,11.4l.09-.05a1.24,1.24,0,0,1,.6-.13h6.13a1.62,1.62,0,0,1,.4,0,2.84,2.84,0,0,1,.41.23,1.28,1.28,0,0,1,.24.27l.38.53c.3.44.61.86.87,1.22l.17.22.57.78c.21.3.42.6.64.89.43.59.87,1.2,1.3,1.81a1.09,1.09,0,0,1,.23.63A1,1,0,0,1,30.84,18.34Z"/><path class="cls-1" d="M9.73,34.61a1.4,1.4,0,0,1-.57-.13A1.28,1.28,0,0,1,8.65,34a1.23,1.23,0,0,1-.69.51,1.32,1.32,0,0,1-1.7-1.16c0-.11,0-.21,0-.29V27.49h0a1.32,1.32,0,0,1-1.94.45A1.35,1.35,0,0,1,4,26.08c.46-.64.92-1.28,1.37-1.89L6,23.33a1.35,1.35,0,0,1,1.15-.54h.49c.64,0,1.31,0,2,0a.37.37,0,0,0,.37-.2c.32-.46.65-.92,1-1.36l.4-.56a1.38,1.38,0,0,1,1.25-.62,1.32,1.32,0,0,1,1.07.74,1.34,1.34,0,0,1-.11,1.31c-.36.53-.74,1.05-1.11,1.56l-.44.61c-.18.25-.37.52-.58.77A1.81,1.81,0,0,0,11,26.3c0,1,0,2.07,0,3.08,0,.43,0,.86,0,1.29v2.54a1.32,1.32,0,0,1-.66,1.23A1.33,1.33,0,0,1,9.73,34.61Zm-1-5.88a.72.72,0,0,1,.73.72v3.7a.81.81,0,0,0,0,.17.23.23,0,0,0,.12.17.19.19,0,0,0,.18,0s.11-.06.11-.26V30.67c0-.43,0-.87,0-1.3,0-1,0-2,0-3.06a2.9,2.9,0,0,1,.68-2,7.55,7.55,0,0,0,.53-.7l.45-.62,1.09-1.53a.22.22,0,0,0,0-.22.21.21,0,0,0-.17-.11s-.13,0-.25.16l-.41.57c-.32.43-.65.89-1,1.34a1.5,1.5,0,0,1-1.31.67H7.17c-.2,0-.23.05-.26.09l-.62.85L4.93,26.72A.24.24,0,0,0,5,27c.12.08.23.05.34-.09l.54-.75.33-.46.14-.17a.45.45,0,0,0,.09-.1l.34-.4h.63v8a1,1,0,0,0,0,.17.24.24,0,0,0,.1.19.24.24,0,0,0,.19,0c.09,0,.13-.12.14-.29V29.46a.73.73,0,0,1,.72-.73Z"/><path class="cls-1" d="M22.7,8.89a3.81,3.81,0,0,1-3.79-3.75h0a3.79,3.79,0,1,1,3.88,3.75ZM20.15,5.12a2.57,2.57,0,0,0,.79,1.82,2.54,2.54,0,0,0,4.3-1.87,2.5,2.5,0,0,0-.77-1.79,2.55,2.55,0,0,0-4.32,1.84Z"/><path class="cls-1" d="M8.65,22.25a2.06,2.06,0,0,1-1.47-.6,2.09,2.09,0,0,1,1.45-3.57h0a2.05,2.05,0,0,1,1.44.59,2.1,2.1,0,0,1,0,3,2.08,2.08,0,0,1-1.47.61Zm0-3.07h0a1,1,0,0,0-1,1,1.05,1.05,0,0,0,.29.7,1,1,0,0,0,.7.28.94.94,0,0,0,.69-.29,1,1,0,0,0,.29-.7h0a1,1,0,0,0-.3-.7A1,1,0,0,0,8.66,19.18Z"/></g><rect class="cls-2" width="36" height="36"/></g></g></svg>